<?xml version="1.0" encoding="utf-8" standalone="no"?>
<!DOCTYPE svg PUBLIC "-//W3C//DTD SVG 1.1//EN"
  "http://www.w3.org/Graphics/SVG/1.1/DTD/svg11.dtd">
<svg xmlns:xlink="http://www.w3.org/1999/xlink" width="784.8pt" height="316.2825pt" viewBox="0 0 784.8 316.2825" xmlns="http://www.w3.org/2000/svg" version="1.1">
 <metadata>
  <rdf:RDF xmlns:dc="http://purl.org/dc/elements/1.1/" xmlns:cc="http://creativecommons.org/ns#" xmlns:rdf="http://www.w3.org/1999/02/22-rdf-syntax-ns#">
   <cc:Work>
    <dc:type rdf:resource="http://purl.org/dc/dcmitype/StillImage"/>
    <dc:date>2026-04-14T20:32:35.219246</dc:date>
    <dc:format>image/svg+xml</dc:format>
    <dc:creator>
     <cc:Agent>
      <dc:title>Matplotlib v3.10.8, https://matplotlib.org/</dc:title>
     </cc:Agent>
    </dc:creator>
   </cc:Work>
  </rdf:RDF>
 </metadata>
 <defs>
  <style type="text/css">*{stroke-linejoin: round; stroke-linecap: butt}</style>
 </defs>
 <g id="figure_1">
  <g id="patch_1">
   <path d="M 0 316.2825 
L 784.8 316.2825 
L 784.8 0 
L 0 0 
z
" style="fill: #ffffff"/>
  </g>
  <g id="axes_1">
   <g id="table_1">
    <g id="patch_2">
     <path d="M 7.2 104.407714 
L 122.76 104.407714 
L 122.76 82.85591 
L 7.2 82.85591 
z
" style="fill: #455a64; stroke: #000000; stroke-linejoin: miter"/>
    </g>
    <g id="text_1">
     <!-- 难度级别 -->
     <g style="fill: #ffffff" transform="translate(46.98 96.690406) scale(0.09 -0.09)">
      <defs>
       <path id="SimHei-96be" d="M 5775 1100 
Q 5425 1125 5000 1125 
L 4825 1125 
L 4825 200 
L 5200 200 
Q 5725 200 6075 225 
L 6075 -200 
Q 5750 -175 5200 -175 
L 3425 -175 
L 3425 -675 
L 3000 -675 
Q 3025 -300 3025 600 
L 3025 3125 
Q 2925 2925 2850 2750 
Q 2775 2575 2650 2350 
Q 2500 2500 2200 2600 
Q 2425 2925 2600 3287 
Q 2775 3650 2900 3950 
Q 3025 4250 3112 4550 
Q 3200 4850 3225 5100 
Q 3525 5000 3775 4925 
Q 3700 4825 3600 4587 
Q 3500 4350 3375 4000 
L 5075 4000 
Q 5525 4000 5925 4025 
L 5925 3600 
Q 5700 3625 5100 3625 
L 4825 3625 
L 4825 2800 
L 5025 2800 
Q 5425 2800 5750 2825 
L 5750 2375 
Q 5475 2400 5025 2400 
L 4825 2400 
L 4825 1500 
L 5000 1500 
Q 5450 1500 5775 1525 
L 5775 1100 
z
M 1675 1350 
Q 1450 975 1175 575 
Q 900 175 575 -200 
Q 450 50 250 200 
Q 600 550 850 887 
Q 1100 1225 1350 1750 
Q 1150 2125 962 2425 
Q 775 2725 500 3025 
Q 700 3150 850 3300 
Q 1025 3100 1187 2850 
Q 1350 2600 1550 2300 
Q 1675 2625 1750 3075 
Q 1825 3525 1875 4075 
L 1200 4075 
Q 775 4075 525 4050 
L 525 4525 
Q 775 4500 1175 4500 
L 2375 4500 
Q 2350 4175 2312 3887 
Q 2275 3600 2187 3087 
Q 2100 2575 2012 2300 
Q 1925 2025 1875 1850 
Q 2000 1675 2225 1337 
Q 2450 1000 2675 650 
Q 2475 550 2275 350 
Q 2125 650 1950 937 
Q 1775 1225 1675 1350 
z
M 4350 200 
L 4350 1125 
L 3425 1125 
L 3425 200 
L 4350 200 
z
M 4350 1500 
L 4350 2400 
L 3425 2400 
L 3425 1500 
L 4350 1500 
z
M 4350 2800 
L 4350 3625 
L 3425 3625 
L 3425 2800 
L 4350 2800 
z
M 4675 4200 
Q 4525 4475 4375 4662 
Q 4225 4850 4150 4950 
Q 4325 5075 4475 5225 
Q 4675 5000 4825 4850 
Q 4975 4700 5075 4550 
Q 4850 4375 4675 4200 
z
" transform="scale(0.015625)"/>
       <path id="SimHei-5ea6" d="M 1750 1675 
Q 2450 1650 2875 1650 
L 5200 1650 
Q 4975 1250 4650 850 
Q 4325 450 4025 200 
Q 4350 50 4950 -50 
Q 5550 -150 6100 -150 
Q 5950 -300 5825 -650 
Q 5100 -550 4550 -412 
Q 4000 -275 3625 -100 
Q 3100 -325 2587 -462 
Q 2075 -600 1525 -675 
Q 1450 -475 1225 -250 
Q 1675 -250 2250 -125 
Q 2825 0 3250 200 
Q 2825 550 2400 1275 
L 1750 1250 
L 1750 1675 
z
M 2975 5075 
Q 3250 5150 3475 5250 
Q 3625 4975 3775 4525 
L 4700 4525 
Q 4975 4525 5700 4550 
L 5700 4100 
Q 5000 4125 4650 4125 
L 1375 4125 
Q 1375 3000 1350 2312 
Q 1325 1625 1212 950 
Q 1100 275 725 -525 
Q 500 -375 250 -300 
Q 650 400 762 1075 
Q 875 1750 887 2800 
Q 900 3850 875 4525 
L 3200 4525 
Q 3100 4850 2975 5075 
z
M 2475 3300 
Q 2475 3700 2450 3925 
L 2975 3925 
Q 2950 3725 2950 3300 
L 4300 3300 
Q 4300 3700 4275 3950 
L 4800 3950 
Q 4775 3650 4775 3300 
Q 5325 3300 5725 3325 
L 5725 2900 
Q 5350 2925 4775 2925 
Q 4775 2250 4800 1950 
L 2450 1950 
Q 2475 2350 2475 2925 
Q 2175 2925 1600 2900 
L 1600 3325 
Q 2175 3300 2475 3300 
z
M 4300 2350 
L 4300 2925 
L 2950 2925 
L 2950 2350 
L 4300 2350 
z
M 2875 1275 
Q 3200 775 3650 425 
Q 4025 700 4425 1275 
L 2900 1275 
L 2875 1275 
z
" transform="scale(0.015625)"/>
       <path id="SimHei-7ea7" d="M 5350 4750 
Q 5125 3925 4900 2975 
L 5775 2975 
Q 5650 2325 5462 1750 
Q 5275 1175 4900 575 
Q 5150 325 5462 112 
Q 5775 -100 6150 -250 
Q 5875 -475 5800 -700 
Q 5175 -350 4600 250 
Q 4425 75 4062 -187 
Q 3700 -450 3125 -700 
Q 3000 -500 2775 -350 
Q 3300 -175 3675 75 
Q 4050 325 4325 600 
Q 4025 950 3500 1950 
Q 3425 1400 3125 800 
Q 2850 175 2125 -475 
Q 1975 -350 1700 -200 
Q 2200 150 2525 637 
Q 2850 1125 2987 1687 
Q 3125 2250 3150 2912 
Q 3175 3575 3175 4350 
Q 2900 4350 2525 4325 
L 2525 4775 
Q 2975 4750 3725 4750 
L 5350 4750 
z
M 1900 4850 
Q 1750 4650 1512 4212 
Q 1275 3775 900 3250 
L 1775 3300 
Q 2025 3700 2175 4125 
Q 2300 4025 2625 3825 
Q 2475 3575 2175 3100 
Q 1875 2625 1200 1725 
Q 1950 1825 2400 1900 
Q 2325 1600 2325 1450 
Q 2075 1425 1562 1350 
Q 1050 1275 575 1150 
Q 500 1400 400 1600 
Q 625 1725 925 2037 
Q 1225 2350 1550 2900 
Q 1275 2875 1012 2850 
Q 750 2825 500 2725 
Q 425 2950 300 3250 
Q 625 3450 937 4025 
Q 1250 4600 1400 5125 
Q 1575 5000 1900 4850 
z
M 3575 3125 
Q 3575 2950 3575 2775 
Q 3750 2325 4100 1750 
Q 4450 1150 4600 975 
Q 5025 1625 5225 2575 
L 4325 2575 
Q 4575 3400 4750 4350 
L 3600 4350 
Q 3600 3750 3575 3125 
z
M 2375 1000 
Q 2300 750 2325 550 
Q 1825 425 1425 312 
Q 1025 200 550 50 
Q 475 300 325 525 
Q 675 600 1112 687 
Q 1550 775 2375 1000 
z
" transform="scale(0.015625)"/>
       <path id="SimHei-522b" d="M 3275 4950 
Q 3250 4600 3250 3925 
Q 3250 3250 3275 2975 
L 800 2975 
Q 825 3275 825 3975 
Q 825 4700 800 4950 
L 3275 4950 
z
M 1650 2125 
Q 1650 2400 1625 2925 
Q 1950 2875 2225 2850 
Q 2150 2625 2125 2125 
L 3600 2125 
Q 3575 1850 3575 1375 
L 3525 125 
Q 3500 -275 3200 -400 
Q 2900 -525 2475 -600 
Q 2375 -275 2250 -25 
Q 2725 -25 2900 25 
Q 3075 75 3075 325 
L 3125 1675 
L 2100 1675 
Q 2025 875 1737 400 
Q 1450 -75 650 -675 
Q 475 -400 250 -225 
Q 900 125 1237 575 
Q 1575 1025 1600 1675 
L 1125 1675 
Q 825 1675 450 1650 
L 450 2150 
Q 800 2125 1125 2125 
L 1650 2125 
z
M 5800 5125 
Q 5775 4875 5775 4375 
L 5775 175 
Q 5775 -350 5525 -450 
Q 5275 -550 4700 -650 
Q 4625 -350 4475 -75 
Q 5000 -75 5150 -12 
Q 5300 50 5300 325 
L 5300 4375 
Q 5300 4825 5275 5125 
L 5800 5125 
z
M 4600 4400 
Q 4575 4100 4575 3700 
L 4575 1600 
Q 4575 1125 4600 725 
L 4075 725 
Q 4100 1125 4100 1600 
L 4100 3700 
Q 4100 4100 4075 4400 
L 4600 4400 
z
M 2775 3425 
L 2775 4500 
L 1300 4500 
L 1300 3425 
L 2775 3425 
z
" transform="scale(0.015625)"/>
      </defs>
      <use xlink:href="#SimHei-96be"/>
      <use xlink:href="#SimHei-5ea6" transform="translate(100 0)"/>
      <use xlink:href="#SimHei-7ea7" transform="translate(200 0)"/>
      <use xlink:href="#SimHei-522b" transform="translate(300 0)"/>
     </g>
    </g>
    <g id="patch_3">
     <path d="M 122.76 104.407714 
L 276.84 104.407714 
L 276.84 82.85591 
L 122.76 82.85591 
z
" style="fill: #455a64; stroke: #000000; stroke-linejoin: miter"/>
    </g>
    <g id="text_2">
     <!-- 电路类型 -->
     <g style="fill: #ffffff" transform="translate(181.8 96.672827) scale(0.09 -0.09)">
      <defs>
       <path id="SimHei-7535" d="M 6150 325 
Q 5975 -250 5825 -412 
Q 5675 -575 5325 -575 
L 3375 -575 
Q 2700 -600 2675 100 
L 2675 975 
L 1225 975 
L 1225 500 
L 650 500 
Q 675 750 675 2225 
Q 675 3700 650 4150 
L 2675 4150 
Q 2675 4825 2650 5200 
L 3200 5200 
Q 3175 4875 3175 4150 
L 5200 4150 
Q 5175 3775 5175 2600 
Q 5175 1450 5200 975 
L 3175 975 
L 3175 300 
Q 3175 -150 3650 -150 
L 4975 -150 
Q 5375 -150 5450 25 
Q 5525 200 5575 575 
Q 5825 400 6150 325 
z
M 4675 1400 
L 4675 2400 
L 3175 2400 
L 3175 1400 
L 4675 1400 
z
M 2675 1400 
L 2675 2400 
L 1225 2400 
L 1225 1400 
L 2675 1400 
z
M 4675 2800 
L 4675 3725 
L 3175 3725 
L 3175 2800 
L 4675 2800 
z
M 2675 2800 
L 2675 3725 
L 1225 3725 
L 1225 2800 
L 2675 2800 
z
" transform="scale(0.015625)"/>
       <path id="SimHei-8def" d="M 2900 425 
Q 1225 -75 475 -350 
Q 425 -150 275 125 
Q 525 150 700 225 
L 700 1800 
Q 700 2000 675 2325 
L 1150 2325 
Q 1125 2100 1125 1675 
L 1125 325 
Q 1300 375 1550 450 
L 1550 2975 
L 725 2975 
Q 750 3225 750 3850 
Q 750 4500 725 4750 
L 2650 4750 
Q 2625 4475 2625 3850 
Q 2625 3250 2650 2975 
L 1975 2975 
L 1975 2075 
Q 2275 2075 2600 2100 
L 2600 1650 
Q 2275 1675 1975 1675 
L 1975 550 
Q 2200 600 2900 875 
Q 2875 675 2900 425 
z
M 4225 5025 
Q 4075 4850 3925 4550 
L 5750 4550 
Q 5575 4125 5287 3650 
Q 5000 3175 4750 2850 
Q 5325 2400 6200 2200 
Q 6000 1950 5900 1750 
Q 5600 1875 5200 2087 
Q 4800 2300 4475 2550 
Q 4150 2300 3762 2100 
Q 3375 1900 2925 1700 
Q 2825 1925 2650 2125 
Q 2975 2200 3400 2375 
Q 3825 2550 4150 2825 
Q 3900 3075 3425 3650 
Q 3250 3350 3100 3150 
Q 2950 3300 2725 3425 
Q 3000 3675 3275 4187 
Q 3550 4700 3700 5225 
Q 3975 5050 4225 5025 
z
M 5525 1800 
Q 5500 1475 5500 650 
Q 5500 -150 5525 -525 
L 5050 -525 
L 5050 -50 
L 3625 -50 
L 3625 -550 
L 3175 -550 
Q 3200 -125 3200 650 
Q 3200 1450 3175 1800 
L 5525 1800 
z
M 5050 325 
L 5050 1400 
L 3625 1400 
L 3625 325 
L 5050 325 
z
M 2200 3350 
L 2200 4375 
L 1175 4375 
L 1175 3350 
L 2200 3350 
z
M 3650 4000 
Q 3950 3550 4425 3125 
Q 4575 3275 4775 3612 
Q 4975 3950 5075 4175 
L 3750 4175 
L 3650 4000 
z
" transform="scale(0.015625)"/>
       <path id="SimHei-7c7b" d="M 2125 3875 
Q 1750 4375 1325 4725 
Q 1525 4875 1675 5050 
L 2525 4225 
Q 2400 4125 2200 3875 
L 3025 3875 
L 3025 4550 
Q 3025 4900 3000 5125 
L 3525 5125 
Q 3500 4850 3500 4550 
L 3500 3875 
L 4325 3875 
Q 4125 4050 4000 4150 
Q 4450 4575 4800 5175 
Q 5000 5000 5275 4825 
Q 5100 4675 4912 4475 
Q 4725 4275 4400 3875 
L 5025 3875 
Q 5425 3875 5900 3900 
L 5900 3450 
Q 5425 3475 5025 3475 
L 3500 3475 
L 3500 3050 
Q 3500 2650 3525 2175 
L 3175 2175 
Q 3475 2075 3675 2000 
Q 3575 1875 3525 1575 
L 5025 1575 
Q 5525 1575 6025 1600 
L 6025 1150 
Q 5550 1175 5050 1175 
L 3675 1175 
Q 4050 600 4712 275 
Q 5375 -50 6050 -175 
Q 5850 -350 5725 -675 
Q 4975 -450 4350 -37 
Q 3725 375 3300 950 
Q 3050 350 2425 -50 
Q 1800 -450 775 -700 
Q 650 -425 475 -225 
Q 1375 -100 2012 225 
Q 2650 550 2900 1175 
L 1625 1175 
Q 1025 1175 525 1150 
L 525 1600 
Q 950 1575 1600 1575 
L 3025 1575 
Q 3075 1825 3100 2175 
L 3000 2175 
Q 3025 2675 3025 3050 
L 3025 3325 
Q 2725 2900 2237 2550 
Q 1750 2200 925 1825 
Q 850 2025 625 2275 
Q 1175 2400 1725 2737 
Q 2275 3075 2600 3475 
L 1550 3475 
Q 1050 3475 600 3425 
L 600 3900 
Q 1075 3875 1550 3875 
L 2125 3875 
z
M 4100 3450 
Q 4850 3000 5800 2350 
Q 5575 2125 5425 1925 
Q 4700 2550 3825 3075 
Q 3975 3250 4100 3450 
z
" transform="scale(0.015625)"/>
       <path id="SimHei-578b" d="M 2625 1775 
Q 2650 2325 2650 2700 
L 2650 3000 
L 1825 3000 
Q 1725 2375 1425 2000 
Q 1125 1625 775 1425 
Q 650 1650 375 1900 
Q 850 2075 1062 2362 
Q 1275 2650 1350 3000 
Q 900 3000 375 2975 
L 375 3450 
Q 925 3425 1400 3425 
Q 1425 3950 1425 4475 
Q 1075 4475 700 4450 
L 700 4900 
Q 1050 4875 1525 4875 
L 3000 4875 
Q 3275 4875 3650 4900 
L 3650 4450 
Q 3325 4475 3125 4475 
L 3125 3425 
Q 3450 3425 3825 3450 
L 3825 2975 
Q 3450 3000 3125 3000 
L 3125 2675 
Q 3125 2225 3150 1775 
L 2625 1775 
z
M 3000 1175 
Q 3000 1375 2975 1725 
L 3500 1725 
Q 3475 1375 3475 1175 
L 4550 1175 
Q 5050 1175 5450 1200 
L 5450 725 
Q 4975 750 4550 750 
L 3475 750 
L 3475 -50 
L 5275 -50 
Q 5700 -50 6100 -25 
L 6100 -500 
Q 5725 -475 5300 -475 
L 1250 -475 
Q 775 -475 400 -500 
L 400 -25 
Q 775 -50 1250 -50 
L 3000 -50 
L 3000 750 
L 2025 750 
Q 1500 750 975 725 
L 1050 1200 
Q 1500 1175 2025 1175 
L 3000 1175 
z
M 5775 5200 
Q 5750 4775 5750 4325 
L 5750 2400 
Q 5775 1950 5612 1775 
Q 5450 1600 4900 1525 
Q 4825 1775 4675 2100 
Q 5175 2075 5237 2150 
Q 5300 2225 5300 2525 
L 5300 4325 
Q 5300 4775 5275 5200 
L 5775 5200 
z
M 4600 4750 
Q 4575 4450 4575 3975 
L 4575 3200 
Q 4575 2825 4600 2425 
L 4100 2425 
Q 4125 2825 4125 3200 
L 4125 3975 
Q 4125 4450 4100 4750 
L 4600 4750 
z
M 2650 3425 
L 2650 4475 
L 1875 4475 
Q 1850 3750 1850 3425 
L 2650 3425 
z
" transform="scale(0.015625)"/>
      </defs>
      <use xlink:href="#SimHei-7535"/>
      <use xlink:href="#SimHei-8def" transform="translate(100 0)"/>
      <use xlink:href="#SimHei-7c7b" transform="translate(200 0)"/>
      <use xlink:href="#SimHei-578b" transform="translate(300 0)"/>
     </g>
    </g>
    <g id="patch_4">
     <path d="M 276.84 104.407714 
L 338.472 104.407714 
L 338.472 82.85591 
L 276.84 82.85591 
z
" style="fill: #455a64; stroke: #000000; stroke-linejoin: miter"/>
    </g>
    <g id="text_3">
     <!-- 题数 -->
     <g style="fill: #ffffff" transform="translate(298.656 96.549781) scale(0.09 -0.09)">
      <defs>
       <path id="SimHei-9898" d="M 2275 2375 
Q 2625 2375 3000 2400 
L 3000 1950 
Q 2650 2000 2050 2000 
L 2050 1350 
Q 2550 1350 2850 1375 
L 2850 925 
Q 2550 950 2050 950 
L 2050 175 
Q 2925 -125 4087 -100 
Q 5250 -75 6100 75 
Q 6000 -200 5975 -525 
Q 5000 -550 4275 -537 
Q 3550 -525 2950 -450 
Q 2350 -375 1887 -187 
Q 1425 0 950 375 
Q 825 -150 625 -650 
Q 400 -475 200 -425 
Q 425 150 500 587 
Q 575 1025 625 1600 
Q 875 1525 1125 1500 
Q 1050 1275 1000 825 
Q 1350 500 1625 375 
L 1625 2000 
Q 725 2000 350 1950 
L 350 2400 
Q 725 2375 1075 2375 
L 2275 2375 
z
M 2750 4925 
Q 2725 4375 2725 3850 
Q 2725 3325 2750 2775 
L 625 2775 
Q 650 3350 650 3875 
Q 650 4400 625 4925 
L 2750 4925 
z
M 5125 4925 
Q 5450 4925 5900 4950 
L 5900 4500 
Q 5450 4525 4625 4525 
L 4525 3775 
L 5650 3775 
Q 5600 3400 5600 2625 
Q 5600 1850 5650 1400 
L 5175 1400 
L 5175 3400 
L 3725 3400 
L 3725 1200 
L 3275 1200 
Q 3300 1700 3300 2550 
Q 3300 3400 3275 3775 
L 4075 3775 
L 4175 4525 
Q 3575 4525 3100 4500 
L 3100 4950 
Q 3575 4925 3925 4925 
L 5125 4925 
z
M 4775 2925 
Q 4725 2575 4712 2262 
Q 4700 1950 4625 1587 
Q 4550 1225 4300 825 
Q 4050 425 3475 25 
Q 3325 275 3075 400 
Q 3575 675 3812 950 
Q 4050 1225 4162 1550 
Q 4275 1875 4275 2225 
Q 4275 2600 4250 3000 
Q 4475 2950 4775 2925 
z
M 2275 3150 
L 2275 3650 
L 1100 3650 
L 1100 3150 
L 2275 3150 
z
M 2275 4050 
L 2275 4525 
L 1100 4525 
L 1100 4050 
L 2275 4050 
z
M 4875 1200 
Q 5425 850 5750 550 
Q 5550 400 5450 200 
Q 5225 425 4600 850 
Q 4775 1000 4875 1200 
z
" transform="scale(0.015625)"/>
       <path id="SimHei-6570" d="M 4525 4925 
Q 4475 4800 4400 4587 
Q 4325 4375 4175 3825 
L 5325 3825 
Q 5575 3825 5925 3850 
L 5925 3400 
Q 5650 3425 5500 3425 
Q 5500 3025 5362 2162 
Q 5225 1300 4875 675 
Q 5125 375 5437 137 
Q 5750 -100 6025 -200 
Q 5725 -425 5625 -625 
Q 5325 -450 5075 -225 
Q 4825 0 4575 325 
Q 4300 25 3987 -187 
Q 3675 -400 3200 -650 
Q 3075 -425 2850 -300 
Q 3225 -150 3650 125 
Q 4075 400 4300 675 
Q 4125 1025 3962 1425 
Q 3800 1825 3675 2475 
Q 3600 2275 3425 1950 
Q 3250 2050 3000 2150 
Q 3400 2850 3650 3675 
Q 3900 4500 3975 5100 
Q 4275 4975 4525 4925 
z
M 2100 2250 
Q 2000 2150 1875 1925 
L 3250 1925 
Q 3100 1300 2725 675 
Q 3125 525 3350 400 
Q 3225 225 3125 25 
Q 2900 175 2450 325 
Q 1950 -225 725 -650 
Q 600 -375 400 -275 
Q 1575 0 2000 475 
Q 1300 650 850 775 
Q 1000 1000 1250 1525 
Q 1000 1525 425 1500 
L 425 1950 
Q 900 1925 1400 1925 
Q 1500 2150 1550 2425 
Q 1825 2325 2100 2250 
z
M 1775 3950 
Q 1775 4550 1750 5100 
L 2250 5100 
Q 2225 4575 2225 3950 
Q 3075 3950 3425 3975 
L 3425 3525 
Q 3075 3550 2225 3550 
Q 2225 2825 2250 2425 
L 1750 2425 
Q 1775 2775 1775 3300 
Q 1650 3100 1300 2787 
Q 950 2475 650 2300 
Q 525 2525 275 2625 
Q 500 2700 875 2975 
Q 1250 3250 1450 3550 
Q 950 3550 500 3525 
L 500 3975 
Q 925 3950 1775 3950 
z
M 3975 3175 
Q 4200 1700 4600 1125 
Q 4850 1700 4937 2287 
Q 5025 2875 5050 3425 
L 4075 3425 
L 3975 3175 
z
M 1450 1000 
Q 1750 925 2275 800 
Q 2475 1050 2650 1525 
L 1725 1525 
Q 1600 1275 1450 1000 
z
M 3325 4825 
Q 3200 4625 3125 4450 
Q 3050 4275 2925 4025 
Q 2725 4125 2525 4175 
Q 2725 4500 2900 5000 
Q 3150 4875 3325 4825 
z
M 2575 3375 
Q 2900 3050 3200 2725 
Q 3050 2600 2875 2425 
Q 2525 2850 2300 3100 
Q 2450 3225 2575 3375 
z
M 925 5000 
Q 1275 4650 1500 4300 
L 1125 4075 
Q 950 4425 600 4725 
Q 825 4875 925 5000 
z
" transform="scale(0.015625)"/>
      </defs>
      <use xlink:href="#SimHei-9898"/>
      <use xlink:href="#SimHei-6570" transform="translate(100 0)"/>
     </g>
    </g>
    <g id="patch_5">
     <path d="M 338.472 104.407714 
L 777.6 104.407714 
L 777.6 82.85591 
L 338.472 82.85591 
z
" style="fill: #455a64; stroke: #000000; stroke-linejoin: miter"/>
    </g>
    <g id="text_4">
     <!-- 代表题目 -->
     <g style="fill: #ffffff" transform="translate(540.036 96.620093) scale(0.09 -0.09)">
      <defs>
       <path id="SimHei-4ee3" d="M 3300 2950 
Q 3175 4575 3150 5100 
Q 3300 5075 3725 5025 
Q 3675 4725 3800 3050 
Q 5000 3275 5650 3475 
L 5775 3000 
Q 5500 2975 3850 2625 
Q 4150 1050 4737 450 
Q 5325 -150 5412 125 
Q 5500 400 5525 725 
Q 5800 550 6075 500 
Q 5900 -200 5737 -425 
Q 5575 -650 5137 -500 
Q 4700 -350 4187 300 
Q 3675 950 3350 2525 
Q 2400 2325 2175 2250 
L 2025 2725 
Q 2425 2775 3300 2950 
z
M 2250 4975 
Q 2100 4725 1700 3650 
L 1700 475 
Q 1700 -50 1725 -600 
L 1200 -600 
Q 1225 -50 1225 475 
L 1225 2750 
Q 850 2150 600 1850 
Q 450 2050 225 2225 
Q 625 2600 1050 3425 
Q 1475 4250 1675 5200 
Q 2050 5025 2250 4975 
z
M 4700 4875 
Q 5150 4325 5325 4050 
Q 5100 3900 4875 3725 
Q 4650 4150 4300 4575 
Q 4500 4700 4700 4875 
z
" transform="scale(0.015625)"/>
       <path id="SimHei-8868" d="M 2950 4475 
Q 2950 4800 2925 5200 
L 3500 5200 
Q 3450 4900 3450 4475 
L 4975 4475 
Q 5325 4475 5725 4500 
L 5725 4025 
Q 5325 4075 5000 4075 
L 3450 4075 
L 3450 3600 
L 4675 3600 
Q 5075 3600 5450 3625 
L 5450 3175 
Q 5100 3200 4675 3200 
L 3450 3200 
L 3450 2650 
L 5225 2650 
Q 5675 2650 6075 2675 
L 6075 2200 
Q 5700 2250 5250 2250 
L 3075 2250 
Q 2900 2025 2525 1625 
L 2525 175 
Q 2975 425 3525 800 
Q 3575 500 3700 275 
Q 3225 50 2837 -200 
Q 2450 -450 2250 -625 
Q 2050 -375 1900 -175 
Q 2075 -50 2050 400 
L 2050 1200 
Q 1750 950 1425 737 
Q 1100 525 750 325 
Q 600 550 375 750 
Q 975 1000 1562 1425 
Q 2150 1850 2450 2250 
L 1275 2250 
Q 800 2250 350 2200 
L 350 2675 
Q 650 2650 1350 2650 
L 2950 2650 
L 2950 3200 
L 1825 3200 
Q 1400 3200 1125 3175 
L 1125 3625 
Q 1525 3600 1825 3600 
L 2950 3600 
L 2950 4075 
L 1700 4075 
Q 1225 4075 825 4025 
L 825 4525 
Q 1200 4475 1825 4475 
L 2950 4475 
z
M 3550 2125 
Q 3725 1600 4150 1050 
Q 4650 1450 5050 2000 
Q 5275 1775 5575 1575 
Q 5350 1500 5075 1262 
Q 4800 1025 4475 725 
Q 4725 475 5225 337 
Q 5725 200 6150 175 
Q 5925 -100 5875 -425 
Q 4600 -125 4012 500 
Q 3425 1125 3150 1950 
L 3550 2125 
z
" transform="scale(0.015625)"/>
       <path id="SimHei-76ee" d="M 5375 4900 
Q 5350 4175 5350 3525 
L 5350 600 
Q 5350 225 5375 -550 
L 4825 -550 
L 4825 -100 
L 1575 -100 
L 1575 -525 
L 1050 -525 
Q 1075 150 1075 550 
L 1075 3525 
Q 1075 4350 1050 4900 
L 5375 4900 
z
M 4825 300 
L 4825 1475 
L 1575 1475 
L 1575 300 
L 4825 300 
z
M 4825 1875 
L 4825 3000 
L 1575 3000 
L 1575 1875 
L 4825 1875 
z
M 4825 3400 
L 4825 4500 
L 1575 4500 
L 1575 3400 
L 4825 3400 
z
" transform="scale(0.015625)"/>
      </defs>
      <use xlink:href="#SimHei-4ee3"/>
      <use xlink:href="#SimHei-8868" transform="translate(100 0)"/>
      <use xlink:href="#SimHei-9898" transform="translate(200 0)"/>
      <use xlink:href="#SimHei-76ee" transform="translate(300 0)"/>
     </g>
    </g>
    <g id="patch_6">
     <path d="M 7.2 125.959517 
L 122.76 125.959517 
L 122.76 104.407714 
L 7.2 104.407714 
z
" style="fill: #ffffff; stroke: #cccccc; stroke-linejoin: miter"/>
    </g>
    <g id="text_5">
     <!-- Easy -->
     <g transform="translate(56.98 117.433616) scale(0.08 -0.08)">
      <defs>
       <path id="SimHei-45" d="M 2900 125 
L 350 125 
L 350 4400 
L 2775 4400 
L 2775 3925 
L 925 3925 
L 925 2600 
L 2625 2600 
L 2625 2125 
L 925 2125 
L 925 600 
L 2900 600 
L 2900 125 
z
" transform="scale(0.015625)"/>
       <path id="SimHei-61" d="M 2875 125 
L 2275 125 
Q 2225 175 2200 262 
Q 2175 350 2175 475 
Q 2000 275 1750 175 
Q 1500 75 1225 75 
Q 825 75 550 275 
Q 275 475 275 850 
Q 275 1225 525 1450 
Q 775 1675 1300 1750 
Q 1650 1800 1912 1875 
Q 2175 1950 2175 2075 
Q 2175 2225 2062 2375 
Q 1950 2525 1575 2525 
Q 1275 2525 1137 2412 
Q 1000 2300 950 2100 
L 400 2100 
Q 450 2500 762 2737 
Q 1075 2975 1575 2975 
Q 2125 2975 2400 2725 
Q 2675 2475 2675 2025 
L 2675 650 
Q 2675 500 2725 375 
Q 2775 250 2875 125 
z
M 2175 1050 
L 2175 1550 
Q 2025 1500 1887 1462 
Q 1750 1425 1425 1375 
Q 1050 1325 937 1200 
Q 825 1075 825 900 
Q 825 750 937 637 
Q 1050 525 1275 525 
Q 1500 525 1762 650 
Q 2025 775 2175 1050 
z
" transform="scale(0.015625)"/>
       <path id="SimHei-73" d="M 2750 900 
Q 2750 500 2437 287 
Q 2125 75 1650 75 
Q 1050 75 725 312 
Q 400 550 400 1000 
L 900 1000 
Q 900 700 1112 600 
Q 1325 500 1625 500 
Q 1925 500 2075 612 
Q 2225 725 2225 900 
Q 2225 1025 2100 1150 
Q 1975 1275 1475 1350 
Q 900 1425 687 1637 
Q 475 1850 475 2200 
Q 475 2500 762 2737 
Q 1050 2975 1600 2975 
Q 2100 2975 2387 2750 
Q 2675 2525 2675 2150 
L 2175 2150 
Q 2175 2375 2012 2462 
Q 1850 2550 1600 2550 
Q 1275 2550 1137 2437 
Q 1000 2325 1000 2175 
Q 1000 2000 1125 1900 
Q 1250 1800 1650 1750 
Q 2300 1650 2525 1437 
Q 2750 1225 2750 900 
z
" transform="scale(0.015625)"/>
       <path id="SimHei-79" d="M 2900 2925 
L 1750 -100 
Q 1650 -450 1450 -625 
Q 1250 -800 950 -800 
Q 825 -800 712 -787 
Q 600 -775 500 -725 
L 500 -225 
Q 600 -275 700 -300 
Q 800 -325 875 -325 
Q 1075 -325 1150 -262 
Q 1225 -200 1300 25 
L 200 2925 
L 750 2925 
L 1550 725 
L 1575 725 
L 2350 2925 
L 2900 2925 
z
" transform="scale(0.015625)"/>
      </defs>
      <use xlink:href="#SimHei-45"/>
      <use xlink:href="#SimHei-61" transform="translate(50 0)"/>
      <use xlink:href="#SimHei-73" transform="translate(100 0)"/>
      <use xlink:href="#SimHei-79" transform="translate(150 0)"/>
     </g>
    </g>
    <g id="patch_7">
     <path d="M 122.76 125.959517 
L 276.84 125.959517 
L 276.84 104.407714 
L 122.76 104.407714 
z
" style="fill: #ffffff; stroke: #cccccc; stroke-linejoin: miter"/>
    </g>
    <g id="text_6">
     <!-- 组合逻辑 (Comb) -->
     <g transform="translate(169.8 117.871116) scale(0.08 -0.08)">
      <defs>
       <path id="SimHei-7ec4" d="M 6125 -425 
Q 5750 -400 5225 -400 
L 3275 -400 
Q 2775 -400 2400 -425 
L 2400 50 
Q 2725 25 2950 25 
L 2950 3775 
Q 2950 4375 2900 4625 
L 5525 4625 
Q 5500 4400 5500 3775 
L 5500 25 
Q 5825 25 6125 50 
L 6125 -425 
z
M 1725 4825 
Q 1500 4550 1287 4137 
Q 1075 3725 725 3050 
Q 950 3050 1550 3075 
Q 1800 3550 1900 3975 
Q 2075 3825 2450 3675 
Q 2225 3350 1937 2875 
Q 1650 2400 1150 1625 
Q 1950 1725 2425 1775 
L 2425 1350 
Q 2100 1325 1575 1250 
Q 1050 1175 575 1050 
Q 550 1300 400 1575 
Q 675 1675 912 1975 
Q 1150 2275 1375 2725 
Q 1225 2725 950 2687 
Q 675 2650 425 2525 
Q 325 2825 225 3050 
Q 450 3300 712 3862 
Q 975 4425 1150 5075 
Q 1425 4925 1725 4825 
z
M 5025 25 
L 5025 1275 
L 3425 1275 
L 3425 25 
L 5025 25 
z
M 5025 3125 
L 5025 4225 
L 3425 4225 
L 3425 3125 
L 5025 3125 
z
M 5025 1700 
L 5025 2725 
L 3425 2725 
L 3425 1700 
L 5025 1700 
z
M 2375 175 
Q 1875 100 1375 -12 
Q 875 -125 450 -300 
Q 375 -75 250 250 
Q 925 325 1162 375 
Q 1400 425 2375 600 
L 2375 175 
z
" transform="scale(0.015625)"/>
       <path id="SimHei-5408" d="M 5050 1800 
Q 5025 1550 5025 650 
Q 5025 -250 5050 -525 
L 4525 -525 
L 4525 -50 
L 1750 -50 
L 1750 -600 
L 1250 -600 
Q 1275 -300 1275 550 
Q 1275 1425 1250 1800 
L 5050 1800 
z
M 3375 4800 
Q 4100 3925 4550 3600 
Q 5000 3275 5375 3100 
Q 5750 2925 6100 2825 
Q 5850 2550 5775 2300 
Q 5275 2525 4875 2775 
Q 4475 3025 4062 3412 
Q 3650 3800 3125 4475 
Q 2650 3800 2187 3362 
Q 1725 2925 1400 2675 
Q 1075 2425 675 2175 
Q 625 2275 275 2575 
Q 800 2825 1275 3175 
Q 1750 3525 2225 4062 
Q 2700 4600 3000 5225 
Q 3275 5050 3500 4950 
L 3375 4800 
z
M 4525 350 
L 4525 1400 
L 1750 1400 
L 1750 350 
L 4525 350 
z
M 3925 2825 
Q 4325 2825 4625 2850 
L 4625 2375 
Q 4300 2400 3950 2400 
L 2550 2400 
Q 2025 2400 1700 2375 
L 1700 2850 
Q 2175 2825 2550 2825 
L 3925 2825 
z
" transform="scale(0.015625)"/>
       <path id="SimHei-903b" d="M 3825 3025 
Q 3625 2875 3450 2675 
L 5675 2675 
Q 5175 1600 4625 1150 
Q 4075 700 3625 512 
Q 3175 325 2400 150 
Q 2300 450 2075 675 
Q 2500 725 2962 812 
Q 3425 900 3775 1100 
Q 3400 1425 3050 1650 
Q 3275 1875 3375 2025 
Q 3875 1675 4175 1400 
Q 4600 1725 4900 2275 
L 3200 2275 
Q 2800 1850 2350 1475 
Q 2125 1700 1925 1850 
Q 2825 2450 3275 3325 
L 2075 3325 
Q 2100 3800 2100 4200 
Q 2100 4625 2075 5075 
L 5800 5075 
Q 5775 4775 5775 4175 
Q 5775 3600 5800 3325 
L 3350 3325 
Q 3575 3150 3825 3025 
z
M 1450 3200 
Q 1425 2700 1425 2275 
L 1425 575 
Q 2150 -25 3700 -25 
Q 5275 -25 6175 75 
Q 6000 -225 5950 -525 
Q 4850 -525 4137 -512 
Q 3425 -500 2937 -437 
Q 2450 -375 2162 -287 
Q 1875 -200 1600 -12 
Q 1325 175 1150 0 
Q 975 -175 650 -550 
Q 500 -350 225 -175 
Q 600 100 975 425 
L 975 2800 
Q 650 2800 275 2775 
L 275 3225 
Q 650 3200 1450 3200 
z
M 3225 3700 
L 3225 4675 
L 2575 4675 
L 2575 3700 
L 3225 3700 
z
M 1150 5225 
Q 1425 4350 1500 4050 
Q 1225 3975 1025 3850 
Q 875 4475 650 5100 
Q 875 5150 1150 5225 
z
M 5300 3700 
L 5300 4675 
L 4675 4675 
L 4675 3700 
L 5300 3700 
z
M 4250 3700 
L 4250 4675 
L 3650 4675 
L 3650 3700 
L 4250 3700 
z
" transform="scale(0.015625)"/>
       <path id="SimHei-8f91" d="M 6100 700 
Q 6075 450 6075 300 
Q 6000 300 5500 225 
Q 5500 -200 5525 -675 
L 5050 -675 
Q 5075 -275 5075 150 
Q 3325 -50 2800 -200 
L 2650 300 
L 3150 350 
L 3150 2725 
Q 2900 2725 2650 2700 
L 2650 3125 
Q 3025 3100 3450 3100 
L 5500 3100 
Q 5725 3100 6025 3125 
L 6025 2700 
Q 5800 2725 5500 2725 
L 5500 600 
Q 5750 650 6100 700 
z
M 2875 1000 
Q 2550 900 2050 750 
Q 2050 75 2075 -650 
L 1600 -650 
Q 1625 75 1625 650 
Q 775 425 475 325 
Q 425 450 300 800 
Q 600 825 1625 1075 
L 1625 2000 
L 1025 2000 
Q 725 2000 525 1925 
L 350 2375 
Q 575 2450 762 2887 
Q 950 3325 1125 3950 
Q 900 3950 325 3925 
L 325 4350 
Q 1000 4325 1225 4325 
Q 1375 4800 1450 5200 
Q 1650 5100 1950 5050 
Q 1800 4700 1675 4325 
Q 2375 4325 2925 4350 
L 2925 3925 
Q 2300 3950 1575 3950 
Q 1400 3425 1025 2400 
L 1625 2400 
Q 1625 2925 1600 3300 
L 2075 3300 
Q 2050 2950 2050 2400 
L 2775 2400 
L 2775 2000 
L 2050 2000 
L 2050 1150 
Q 2525 1275 2875 1400 
L 2875 1000 
z
M 5600 4825 
Q 5575 4550 5575 4150 
Q 5575 3775 5600 3500 
L 3150 3500 
Q 3175 3850 3175 4200 
Q 3175 4550 3150 4825 
L 5600 4825 
z
M 5150 3850 
L 5150 4475 
L 3575 4475 
L 3575 3850 
L 5150 3850 
z
M 5075 1325 
L 5075 1850 
L 3575 1850 
L 3575 1325 
L 5075 1325 
z
M 5075 2200 
L 5075 2725 
L 3575 2725 
L 3575 2200 
L 5075 2200 
z
M 5075 550 
L 5075 975 
L 3575 975 
L 3575 375 
L 5075 550 
z
" transform="scale(0.015625)"/>
       <path id="SimHei-20" transform="scale(0.015625)"/>
       <path id="SimHei-28" d="M 2975 -200 
L 2700 -475 
Q 2075 125 1762 775 
Q 1450 1425 1450 2250 
Q 1450 3075 1762 3725 
Q 2075 4375 2700 5000 
L 2975 4725 
Q 2400 4175 2112 3587 
Q 1825 3000 1825 2250 
Q 1825 1500 2112 912 
Q 2400 325 2975 -200 
z
" transform="scale(0.015625)"/>
       <path id="SimHei-43" d="M 2975 1825 
Q 2950 875 2575 475 
Q 2200 75 1675 75 
Q 1075 75 650 562 
Q 225 1050 225 2125 
Q 225 3300 637 3875 
Q 1050 4450 1700 4450 
Q 2250 4450 2612 4037 
Q 2975 3625 2950 2875 
L 2400 2875 
Q 2400 3425 2225 3700 
Q 2050 3975 1700 3975 
Q 1300 3975 1062 3562 
Q 825 3150 825 2175 
Q 825 1275 1062 912 
Q 1300 550 1675 550 
Q 1950 550 2175 812 
Q 2400 1075 2400 1825 
L 2975 1825 
z
" transform="scale(0.015625)"/>
       <path id="SimHei-6f" d="M 2925 1525 
Q 2925 875 2525 475 
Q 2125 75 1575 75 
Q 1025 75 625 475 
Q 225 875 225 1525 
Q 225 2175 625 2575 
Q 1025 2975 1575 2975 
Q 2125 2975 2525 2575 
Q 2925 2175 2925 1525 
z
M 2375 1525 
Q 2375 2025 2125 2275 
Q 1875 2525 1575 2525 
Q 1275 2525 1025 2275 
Q 775 2025 775 1525 
Q 775 1025 1025 775 
Q 1275 525 1575 525 
Q 1875 525 2125 775 
Q 2375 1025 2375 1525 
z
" transform="scale(0.015625)"/>
       <path id="SimHei-6d" d="M 3050 125 
L 2550 125 
L 2550 2150 
Q 2550 2300 2500 2400 
Q 2450 2500 2300 2500 
Q 2125 2500 1975 2312 
Q 1825 2125 1825 1825 
L 1825 125 
L 1325 125 
L 1325 2150 
Q 1325 2300 1275 2400 
Q 1225 2500 1075 2500 
Q 900 2500 750 2312 
Q 600 2125 600 1825 
L 600 125 
L 100 125 
L 100 2925 
L 600 2925 
L 600 2550 
Q 725 2750 900 2862 
Q 1075 2975 1275 2975 
Q 1475 2975 1612 2862 
Q 1750 2750 1800 2550 
Q 1925 2750 2087 2862 
Q 2250 2975 2450 2975 
Q 2750 2975 2900 2812 
Q 3050 2650 3050 2350 
L 3050 125 
z
" transform="scale(0.015625)"/>
       <path id="SimHei-62" d="M 2825 1525 
Q 2825 800 2475 437 
Q 2125 75 1625 75 
Q 1350 75 1150 175 
Q 950 275 800 500 
L 800 125 
L 300 125 
L 300 4400 
L 800 4400 
L 800 2550 
Q 950 2775 1150 2887 
Q 1350 3000 1625 3000 
Q 2125 3000 2475 2625 
Q 2825 2250 2825 1525 
z
M 2275 1525 
Q 2275 2000 2087 2275 
Q 1900 2550 1525 2550 
Q 1225 2550 1012 2275 
Q 800 2000 800 1525 
Q 800 1050 1012 787 
Q 1225 525 1525 525 
Q 1900 525 2087 787 
Q 2275 1050 2275 1525 
z
" transform="scale(0.015625)"/>
       <path id="SimHei-29" d="M 1675 2250 
Q 1675 1425 1362 775 
Q 1050 125 425 -475 
L 150 -200 
Q 725 325 1012 912 
Q 1300 1500 1300 2250 
Q 1300 3000 1012 3587 
Q 725 4175 150 4725 
L 425 5000 
Q 1050 4375 1362 3725 
Q 1675 3075 1675 2250 
z
" transform="scale(0.015625)"/>
      </defs>
      <use xlink:href="#SimHei-7ec4"/>
      <use xlink:href="#SimHei-5408" transform="translate(100 0)"/>
      <use xlink:href="#SimHei-903b" transform="translate(200 0)"/>
      <use xlink:href="#SimHei-8f91" transform="translate(300 0)"/>
      <use xlink:href="#SimHei-20" transform="translate(400 0)"/>
      <use xlink:href="#SimHei-28" transform="translate(450 0)"/>
      <use xlink:href="#SimHei-43" transform="translate(500 0)"/>
      <use xlink:href="#SimHei-6f" transform="translate(550 0)"/>
      <use xlink:href="#SimHei-6d" transform="translate(600 0)"/>
      <use xlink:href="#SimHei-62" transform="translate(650 0)"/>
      <use xlink:href="#SimHei-29" transform="translate(700 0)"/>
     </g>
    </g>
    <g id="patch_8">
     <path d="M 276.84 125.959517 
L 338.472 125.959517 
L 338.472 104.407714 
L 276.84 104.407714 
z
" style="fill: #ffffff; stroke: #cccccc; stroke-linejoin: miter"/>
    </g>
    <g id="text_7">
     <!-- 5 -->
     <g transform="translate(305.656 117.433616) scale(0.08 -0.08)">
      <defs>
       <path id="SimHei-35" d="M 550 1325 
Q 725 650 1150 575 
Q 1575 500 1837 662 
Q 2100 825 2212 1087 
Q 2325 1350 2312 1675 
Q 2300 2000 2137 2225 
Q 1975 2450 1725 2525 
Q 1475 2600 1162 2525 
Q 850 2450 650 2175 
L 225 2225 
Q 275 2375 700 4375 
L 2675 4375 
L 2675 3925 
L 1075 3925 
Q 950 3250 825 2850 
Q 1200 3025 1525 3012 
Q 1850 3000 2150 2862 
Q 2450 2725 2587 2487 
Q 2725 2250 2787 2012 
Q 2850 1775 2837 1500 
Q 2825 1225 2725 937 
Q 2625 650 2425 462 
Q 2225 275 1937 162 
Q 1650 50 1275 75 
Q 900 100 562 350 
Q 225 600 100 1200 
L 550 1325 
z
" transform="scale(0.015625)"/>
      </defs>
      <use xlink:href="#SimHei-35"/>
     </g>
    </g>
    <g id="patch_9">
     <path d="M 338.472 125.959517 
L 777.6 125.959517 
L 777.6 104.407714 
L 338.472 104.407714 
z
" style="fill: #ffffff; stroke: #cccccc; stroke-linejoin: miter"/>
    </g>
    <g id="text_8">
     <!-- Prob001_zero, Prob007_wire, Prob014_andgate, -->
     <g transform="translate(470.036 113.542991) scale(0.08 -0.08)">
      <defs>
       <path id="SimHei-50" d="M 2950 3100 
Q 2950 2500 2600 2150 
Q 2250 1800 1625 1800 
L 900 1800 
L 900 125 
L 325 125 
L 325 4400 
L 1625 4400 
Q 2250 4400 2600 4050 
Q 2950 3700 2950 3100 
z
M 2375 3100 
Q 2375 3575 2150 3750 
Q 1925 3925 1475 3925 
L 900 3925 
L 900 2275 
L 1475 2275 
Q 1925 2275 2150 2450 
Q 2375 2625 2375 3100 
z
" transform="scale(0.015625)"/>
       <path id="SimHei-72" d="M 2500 2425 
Q 2025 2500 1700 2287 
Q 1375 2075 1150 1550 
L 1150 125 
L 650 125 
L 650 2925 
L 1150 2925 
L 1150 2200 
Q 1375 2600 1712 2787 
Q 2050 2975 2500 2975 
L 2500 2425 
z
" transform="scale(0.015625)"/>
       <path id="SimHei-30" d="M 225 2537 
Q 250 3200 412 3587 
Q 575 3975 875 4225 
Q 1175 4475 1612 4475 
Q 2050 4475 2375 4112 
Q 2700 3750 2800 3200 
Q 2900 2650 2862 1937 
Q 2825 1225 2612 775 
Q 2400 325 1975 150 
Q 1550 -25 1125 187 
Q 700 400 525 750 
Q 350 1100 275 1487 
Q 200 1875 225 2537 
z
M 750 2687 
Q 675 2000 800 1462 
Q 925 925 1212 700 
Q 1500 475 1800 612 
Q 2100 750 2237 1162 
Q 2375 1575 2375 2062 
Q 2375 2550 2337 2950 
Q 2300 3350 2112 3675 
Q 1925 4000 1612 4012 
Q 1300 4025 1062 3700 
Q 825 3375 750 2687 
z
" transform="scale(0.015625)"/>
       <path id="SimHei-31" d="M 1400 3600 
Q 1075 3275 575 2975 
L 575 3450 
Q 1200 3875 1600 4450 
L 1900 4450 
L 1900 150 
L 1400 150 
L 1400 3600 
z
" transform="scale(0.015625)"/>
       <path id="SimHei-5f" d="M 3150 -850 
L 0 -850 
L 0 -550 
L 3150 -550 
L 3150 -850 
z
" transform="scale(0.015625)"/>
       <path id="SimHei-7a" d="M 2775 125 
L 350 125 
L 350 525 
L 2050 2525 
L 450 2525 
L 450 2925 
L 2650 2925 
L 2650 2525 
L 950 525 
L 2775 525 
L 2775 125 
z
" transform="scale(0.015625)"/>
       <path id="SimHei-65" d="M 2850 1075 
Q 2800 625 2450 350 
Q 2100 75 1625 75 
Q 1025 75 637 462 
Q 250 850 250 1525 
Q 250 2200 637 2587 
Q 1025 2975 1625 2975 
Q 2150 2975 2487 2637 
Q 2825 2300 2825 1525 
L 800 1525 
Q 800 975 1037 750 
Q 1275 525 1625 525 
Q 1900 525 2075 662 
Q 2250 800 2300 1075 
L 2850 1075 
z
M 2250 1925 
Q 2200 2275 2025 2412 
Q 1850 2550 1575 2550 
Q 1325 2550 1125 2412 
Q 925 2275 825 1925 
L 2250 1925 
z
" transform="scale(0.015625)"/>
       <path id="SimHei-2c" d="M 1100 125 
L 775 -550 
L 525 -550 
L 775 125 
L 525 125 
L 525 675 
L 1100 675 
L 1100 125 
z
" transform="scale(0.015625)"/>
       <path id="SimHei-37" d="M 850 150 
Q 1300 2050 2425 3925 
L 275 3925 
L 275 4375 
L 2950 4375 
L 2950 3950 
Q 1775 2050 1400 150 
L 850 150 
z
" transform="scale(0.015625)"/>
       <path id="SimHei-77" d="M 3075 2925 
L 2450 75 
L 1975 75 
L 1575 2250 
L 1525 2250 
L 1125 75 
L 650 75 
L 25 2925 
L 550 2925 
L 875 1050 
L 925 1050 
L 1275 2925 
L 1825 2925 
L 2175 1050 
L 2225 1050 
L 2550 2925 
L 3075 2925 
z
" transform="scale(0.015625)"/>
       <path id="SimHei-69" d="M 1800 3725 
L 1300 3725 
L 1300 4375 
L 1800 4375 
L 1800 3725 
z
M 1800 125 
L 1300 125 
L 1300 2925 
L 1800 2925 
L 1800 125 
z
" transform="scale(0.015625)"/>
       <path id="SimHei-34" d="M 2000 1100 
L 75 1100 
L 75 1525 
L 2100 4450 
L 2475 4450 
L 2475 1525 
L 3075 1525 
L 3075 1100 
L 2475 1100 
L 2475 150 
L 2000 150 
L 2000 1100 
z
M 2000 1525 
L 2000 3500 
L 600 1525 
L 2000 1525 
z
" transform="scale(0.015625)"/>
       <path id="SimHei-6e" d="M 2800 125 
L 2300 125 
L 2300 1925 
Q 2300 2225 2150 2400 
Q 2000 2575 1750 2575 
Q 1425 2575 1137 2237 
Q 850 1900 850 1400 
L 850 125 
L 350 125 
L 350 2925 
L 850 2925 
L 850 2400 
Q 1050 2675 1287 2825 
Q 1525 2975 1900 2975 
Q 2350 2975 2575 2725 
Q 2800 2475 2800 2100 
L 2800 125 
z
" transform="scale(0.015625)"/>
       <path id="SimHei-64" d="M 2750 125 
L 2250 125 
L 2250 500 
Q 2100 275 1900 175 
Q 1700 75 1425 75 
Q 925 75 575 437 
Q 225 800 225 1525 
Q 225 2250 575 2625 
Q 925 3000 1425 3000 
Q 1700 3000 1900 2887 
Q 2100 2775 2250 2550 
L 2250 4400 
L 2750 4400 
L 2750 125 
z
M 2250 1525 
Q 2250 2000 2037 2275 
Q 1825 2550 1525 2550 
Q 1150 2550 962 2275 
Q 775 2000 775 1525 
Q 775 1050 962 787 
Q 1150 525 1525 525 
Q 1825 525 2037 787 
Q 2250 1050 2250 1525 
z
" transform="scale(0.015625)"/>
       <path id="SimHei-67" d="M 2975 2500 
Q 2800 2550 2637 2562 
Q 2475 2575 2300 2525 
Q 2375 2450 2425 2337 
Q 2475 2225 2475 2000 
Q 2475 1575 2187 1300 
Q 1900 1025 1475 1025 
Q 1375 1025 1212 1062 
Q 1050 1100 950 1150 
Q 875 1100 850 1050 
Q 825 1000 825 925 
Q 825 800 1000 737 
Q 1175 675 1625 675 
Q 2350 675 2612 475 
Q 2875 275 2875 -25 
Q 2875 -425 2487 -612 
Q 2100 -800 1575 -800 
Q 900 -800 575 -625 
Q 250 -450 250 -150 
Q 250 0 375 150 
Q 500 300 700 400 
Q 550 475 462 587 
Q 375 700 375 875 
Q 375 1025 487 1137 
Q 600 1250 750 1325 
Q 625 1450 550 1625 
Q 475 1800 475 2000 
Q 475 2425 762 2700 
Q 1050 2975 1475 2975 
Q 1700 2975 1862 2912 
Q 2025 2850 2150 2725 
Q 2350 2875 2550 2937 
Q 2750 3000 2975 2975 
L 2975 2500 
z
M 1975 2000 
Q 1975 2250 1850 2400 
Q 1725 2550 1475 2550 
Q 1225 2550 1100 2400 
Q 975 2250 975 2000 
Q 975 1750 1100 1600 
Q 1225 1450 1475 1450 
Q 1725 1450 1850 1600 
Q 1975 1750 1975 2000 
z
M 2400 -75 
Q 2400 25 2287 125 
Q 2175 225 1725 225 
Q 1625 225 1450 237 
Q 1275 250 1050 275 
Q 850 200 775 100 
Q 700 0 700 -100 
Q 700 -250 900 -350 
Q 1100 -450 1600 -450 
Q 2025 -450 2212 -337 
Q 2400 -225 2400 -75 
z
" transform="scale(0.015625)"/>
       <path id="SimHei-74" d="M 2750 200 
Q 2625 150 2462 112 
Q 2300 75 2025 75 
Q 1575 75 1300 325 
Q 1025 575 1025 1025 
L 1025 2525 
L 175 2525 
L 175 2925 
L 1025 2925 
L 1025 3900 
L 1525 3900 
L 1525 2925 
L 2550 2925 
L 2550 2525 
L 1525 2525 
L 1525 1000 
Q 1525 800 1625 662 
Q 1725 525 2000 525 
Q 2275 525 2450 575 
Q 2625 625 2750 700 
L 2750 200 
z
" transform="scale(0.015625)"/>
      </defs>
      <use xlink:href="#SimHei-50"/>
      <use xlink:href="#SimHei-72" transform="translate(50 0)"/>
      <use xlink:href="#SimHei-6f" transform="translate(100 0)"/>
      <use xlink:href="#SimHei-62" transform="translate(150 0)"/>
      <use xlink:href="#SimHei-30" transform="translate(200 0)"/>
      <use xlink:href="#SimHei-30" transform="translate(250 0)"/>
      <use xlink:href="#SimHei-31" transform="translate(300 0)"/>
      <use xlink:href="#SimHei-5f" transform="translate(350 0)"/>
      <use xlink:href="#SimHei-7a" transform="translate(400 0)"/>
      <use xlink:href="#SimHei-65" transform="translate(450 0)"/>
      <use xlink:href="#SimHei-72" transform="translate(500 0)"/>
      <use xlink:href="#SimHei-6f" transform="translate(550 0)"/>
      <use xlink:href="#SimHei-2c" transform="translate(600 0)"/>
      <use xlink:href="#SimHei-20" transform="translate(650 0)"/>
      <use xlink:href="#SimHei-50" transform="translate(700 0)"/>
      <use xlink:href="#SimHei-72" transform="translate(750 0)"/>
      <use xlink:href="#SimHei-6f" transform="translate(800 0)"/>
      <use xlink:href="#SimHei-62" transform="translate(850 0)"/>
      <use xlink:href="#SimHei-30" transform="translate(900 0)"/>
      <use xlink:href="#SimHei-30" transform="translate(950 0)"/>
      <use xlink:href="#SimHei-37" transform="translate(1000 0)"/>
      <use xlink:href="#SimHei-5f" transform="translate(1050 0)"/>
      <use xlink:href="#SimHei-77" transform="translate(1100 0)"/>
      <use xlink:href="#SimHei-69" transform="translate(1150 0)"/>
      <use xlink:href="#SimHei-72" transform="translate(1200 0)"/>
      <use xlink:href="#SimHei-65" transform="translate(1250 0)"/>
      <use xlink:href="#SimHei-2c" transform="translate(1300 0)"/>
      <use xlink:href="#SimHei-20" transform="translate(1350 0)"/>
      <use xlink:href="#SimHei-50" transform="translate(1400 0)"/>
      <use xlink:href="#SimHei-72" transform="translate(1450 0)"/>
      <use xlink:href="#SimHei-6f" transform="translate(1500 0)"/>
      <use xlink:href="#SimHei-62" transform="translate(1550 0)"/>
      <use xlink:href="#SimHei-30" transform="translate(1600 0)"/>
      <use xlink:href="#SimHei-31" transform="translate(1650 0)"/>
      <use xlink:href="#SimHei-34" transform="translate(1700 0)"/>
      <use xlink:href="#SimHei-5f" transform="translate(1750 0)"/>
      <use xlink:href="#SimHei-61" transform="translate(1800 0)"/>
      <use xlink:href="#SimHei-6e" transform="translate(1850 0)"/>
      <use xlink:href="#SimHei-64" transform="translate(1900 0)"/>
      <use xlink:href="#SimHei-67" transform="translate(1950 0)"/>
      <use xlink:href="#SimHei-61" transform="translate(2000 0)"/>
      <use xlink:href="#SimHei-74" transform="translate(2050 0)"/>
      <use xlink:href="#SimHei-65" transform="translate(2100 0)"/>
      <use xlink:href="#SimHei-2c" transform="translate(2150 0)"/>
     </g>
     <!-- Prob024_hadd, Prob027_fadd -->
     <g transform="translate(506.036 121.355491) scale(0.08 -0.08)">
      <defs>
       <path id="SimHei-32" d="M 300 250 
Q 325 625 650 925 
Q 975 1225 1475 1862 
Q 1975 2500 2125 2850 
Q 2275 3200 2237 3450 
Q 2200 3700 2000 3862 
Q 1800 4025 1537 4000 
Q 1275 3975 1037 3800 
Q 800 3625 675 3275 
L 200 3350 
Q 400 3925 712 4187 
Q 1025 4450 1450 4475 
Q 1700 4500 1900 4462 
Q 2100 4425 2312 4287 
Q 2525 4150 2662 3875 
Q 2800 3600 2762 3212 
Q 2725 2825 2375 2287 
Q 2025 1750 1025 600 
L 2825 600 
L 2825 150 
L 300 150 
L 300 250 
z
" transform="scale(0.015625)"/>
       <path id="SimHei-68" d="M 2800 125 
L 2300 125 
L 2300 1925 
Q 2300 2225 2150 2400 
Q 2000 2575 1750 2575 
Q 1425 2575 1137 2237 
Q 850 1900 850 1400 
L 850 125 
L 350 125 
L 350 4400 
L 850 4400 
L 850 2400 
Q 1050 2675 1287 2825 
Q 1525 2975 1900 2975 
Q 2350 2975 2575 2725 
Q 2800 2475 2800 2100 
L 2800 125 
z
" transform="scale(0.015625)"/>
       <path id="SimHei-66" d="M 2850 3825 
Q 2725 3900 2550 3950 
Q 2375 4000 2100 4000 
Q 1825 4000 1725 3862 
Q 1625 3725 1625 3525 
L 1625 2925 
L 2650 2925 
L 2650 2525 
L 1625 2525 
L 1625 125 
L 1125 125 
L 1125 2525 
L 275 2525 
L 275 2925 
L 1125 2925 
L 1125 3500 
Q 1125 3950 1400 4200 
Q 1675 4450 2125 4450 
Q 2400 4450 2562 4412 
Q 2725 4375 2850 4325 
L 2850 3825 
z
" transform="scale(0.015625)"/>
      </defs>
      <use xlink:href="#SimHei-50"/>
      <use xlink:href="#SimHei-72" transform="translate(50 0)"/>
      <use xlink:href="#SimHei-6f" transform="translate(100 0)"/>
      <use xlink:href="#SimHei-62" transform="translate(150 0)"/>
      <use xlink:href="#SimHei-30" transform="translate(200 0)"/>
      <use xlink:href="#SimHei-32" transform="translate(250 0)"/>
      <use xlink:href="#SimHei-34" transform="translate(300 0)"/>
      <use xlink:href="#SimHei-5f" transform="translate(350 0)"/>
      <use xlink:href="#SimHei-68" transform="translate(400 0)"/>
      <use xlink:href="#SimHei-61" transform="translate(450 0)"/>
      <use xlink:href="#SimHei-64" transform="translate(500 0)"/>
      <use xlink:href="#SimHei-64" transform="translate(550 0)"/>
      <use xlink:href="#SimHei-2c" transform="translate(600 0)"/>
      <use xlink:href="#SimHei-20" transform="translate(650 0)"/>
      <use xlink:href="#SimHei-50" transform="translate(700 0)"/>
      <use xlink:href="#SimHei-72" transform="translate(750 0)"/>
      <use xlink:href="#SimHei-6f" transform="translate(800 0)"/>
      <use xlink:href="#SimHei-62" transform="translate(850 0)"/>
      <use xlink:href="#SimHei-30" transform="translate(900 0)"/>
      <use xlink:href="#SimHei-32" transform="translate(950 0)"/>
      <use xlink:href="#SimHei-37" transform="translate(1000 0)"/>
      <use xlink:href="#SimHei-5f" transform="translate(1050 0)"/>
      <use xlink:href="#SimHei-66" transform="translate(1100 0)"/>
      <use xlink:href="#SimHei-61" transform="translate(1150 0)"/>
      <use xlink:href="#SimHei-64" transform="translate(1200 0)"/>
      <use xlink:href="#SimHei-64" transform="translate(1250 0)"/>
     </g>
    </g>
    <g id="patch_10">
     <path d="M 7.2 147.511321 
L 122.76 147.511321 
L 122.76 125.959517 
L 7.2 125.959517 
z
" style="fill: #f5f5f5; stroke: #cccccc; stroke-linejoin: miter"/>
    </g>
    <g id="text_9">
     <!-- Easy -->
     <g transform="translate(56.98 138.985419) scale(0.08 -0.08)">
      <use xlink:href="#SimHei-45"/>
      <use xlink:href="#SimHei-61" transform="translate(50 0)"/>
      <use xlink:href="#SimHei-73" transform="translate(100 0)"/>
      <use xlink:href="#SimHei-79" transform="translate(150 0)"/>
     </g>
    </g>
    <g id="patch_11">
     <path d="M 122.76 147.511321 
L 276.84 147.511321 
L 276.84 125.959517 
L 122.76 125.959517 
z
" style="fill: #f5f5f5; stroke: #cccccc; stroke-linejoin: miter"/>
    </g>
    <g id="text_10">
     <!-- 时序逻辑 (Seq) -->
     <g transform="translate(171.8 139.532294) scale(0.08 -0.08)">
      <defs>
       <path id="SimHei-65f6" d="M 2525 4575 
Q 2500 3675 2500 2400 
Q 2500 1125 2525 400 
L 2000 400 
L 2000 875 
L 1000 875 
L 1000 50 
L 475 50 
Q 500 1200 500 2350 
Q 500 3525 475 4575 
L 2525 4575 
z
M 4875 3825 
Q 4875 4575 4850 5225 
L 5400 5225 
Q 5375 4575 5375 3825 
Q 5750 3825 6175 3850 
L 6175 3375 
Q 5750 3400 5375 3400 
L 5375 50 
Q 5375 -325 5075 -425 
Q 4775 -525 4300 -575 
Q 4300 -275 4025 0 
Q 4500 -50 4687 -25 
Q 4875 0 4875 300 
L 4875 3400 
Q 3625 3400 2775 3375 
L 2775 3850 
Q 3575 3825 4875 3825 
z
M 2000 1300 
L 2000 2550 
L 1000 2550 
L 1000 1300 
L 2000 1300 
z
M 2000 2975 
L 2000 4150 
L 1000 4150 
L 1000 2975 
L 2000 2975 
z
M 3550 2725 
Q 3875 2200 4175 1600 
Q 3925 1525 3650 1375 
Q 3450 1975 3075 2500 
Q 3300 2600 3550 2725 
z
" transform="scale(0.015625)"/>
       <path id="SimHei-5e8f" d="M 4000 2075 
L 5975 2075 
Q 5750 1525 5575 1025 
Q 5325 1100 5050 1150 
Q 5175 1450 5275 1700 
L 4050 1700 
L 4050 150 
Q 4050 -375 3762 -462 
Q 3475 -550 2950 -575 
Q 2875 -300 2750 0 
Q 3350 -75 3475 25 
Q 3600 125 3575 375 
L 3575 1700 
L 2450 1700 
Q 2050 1700 1675 1675 
L 1675 2100 
Q 2100 2075 2425 2075 
L 3675 2075 
Q 3325 2400 2875 2775 
Q 2975 2875 3250 3100 
Q 3400 2975 3725 2725 
L 4575 3275 
L 3000 3275 
Q 2400 3275 1950 3250 
L 1950 3700 
Q 2400 3675 3000 3675 
L 5400 3675 
L 5400 3250 
Q 4700 2875 4025 2450 
L 4275 2250 
L 4000 2075 
z
M 3725 5275 
Q 3825 4925 3925 4525 
L 4850 4525 
Q 5425 4525 6000 4550 
L 6000 4125 
Q 5425 4150 4850 4150 
L 1400 4150 
Q 1400 2750 1362 2137 
Q 1325 1525 1200 887 
Q 1075 250 775 -350 
Q 625 -250 250 -125 
Q 475 300 600 700 
Q 725 1100 800 1637 
Q 875 2175 875 2825 
Q 875 3500 850 4525 
L 3350 4525 
Q 3275 4825 3150 5150 
Q 3425 5200 3725 5275 
z
" transform="scale(0.015625)"/>
       <path id="SimHei-53" d="M 2900 1325 
Q 2900 750 2537 412 
Q 2175 75 1550 75 
Q 925 75 575 425 
Q 225 775 225 1300 
L 225 1475 
L 800 1475 
L 800 1325 
Q 800 950 1025 750 
Q 1250 550 1550 550 
Q 1950 550 2137 762 
Q 2325 975 2325 1275 
Q 2325 1525 2100 1737 
Q 1875 1950 1450 2125 
Q 850 2350 587 2625 
Q 325 2900 325 3275 
Q 325 3800 687 4125 
Q 1050 4450 1550 4450 
Q 2200 4450 2487 4062 
Q 2775 3675 2775 3225 
L 2200 3225 
Q 2225 3500 2050 3725 
Q 1875 3950 1550 3950 
Q 1250 3950 1075 3787 
Q 900 3625 900 3350 
Q 900 3125 1037 2962 
Q 1175 2800 1750 2575 
Q 2300 2350 2600 2037 
Q 2900 1725 2900 1325 
z
" transform="scale(0.015625)"/>
       <path id="SimHei-71" d="M 2750 -800 
L 2250 -800 
L 2250 500 
Q 2100 275 1900 162 
Q 1700 50 1425 50 
Q 925 50 575 425 
Q 225 800 225 1525 
Q 225 2250 575 2612 
Q 925 2975 1425 2975 
Q 1700 2975 1900 2875 
Q 2100 2775 2250 2550 
L 2250 2925 
L 2750 2925 
L 2750 -800 
z
M 2250 1525 
Q 2250 2000 2037 2262 
Q 1825 2525 1525 2525 
Q 1150 2525 962 2262 
Q 775 2000 775 1525 
Q 775 1050 962 775 
Q 1150 500 1525 500 
Q 1825 500 2037 775 
Q 2250 1050 2250 1525 
z
" transform="scale(0.015625)"/>
      </defs>
      <use xlink:href="#SimHei-65f6"/>
      <use xlink:href="#SimHei-5e8f" transform="translate(100 0)"/>
      <use xlink:href="#SimHei-903b" transform="translate(200 0)"/>
      <use xlink:href="#SimHei-8f91" transform="translate(300 0)"/>
      <use xlink:href="#SimHei-20" transform="translate(400 0)"/>
      <use xlink:href="#SimHei-28" transform="translate(450 0)"/>
      <use xlink:href="#SimHei-53" transform="translate(500 0)"/>
      <use xlink:href="#SimHei-65" transform="translate(550 0)"/>
      <use xlink:href="#SimHei-71" transform="translate(600 0)"/>
      <use xlink:href="#SimHei-29" transform="translate(650 0)"/>
     </g>
    </g>
    <g id="patch_12">
     <path d="M 276.84 147.511321 
L 338.472 147.511321 
L 338.472 125.959517 
L 276.84 125.959517 
z
" style="fill: #f5f5f5; stroke: #cccccc; stroke-linejoin: miter"/>
    </g>
    <g id="text_11">
     <!-- 3 -->
     <g transform="translate(305.656 138.985419) scale(0.08 -0.08)">
      <defs>
       <path id="SimHei-33" d="M 250 1225 
L 700 1300 
Q 800 975 1025 762 
Q 1250 550 1587 562 
Q 1925 575 2125 837 
Q 2325 1100 2300 1437 
Q 2275 1775 2037 1962 
Q 1800 2150 1275 2225 
L 1275 2550 
Q 1800 2600 2037 2825 
Q 2275 3050 2250 3412 
Q 2225 3775 1925 3937 
Q 1625 4100 1287 3975 
Q 950 3850 750 3275 
L 300 3350 
Q 450 3800 712 4100 
Q 975 4400 1425 4450 
Q 1875 4500 2212 4337 
Q 2550 4175 2687 3837 
Q 2825 3500 2725 3100 
Q 2625 2700 2150 2400 
Q 2500 2250 2687 1950 
Q 2875 1650 2812 1162 
Q 2750 675 2375 375 
Q 2000 75 1525 87 
Q 1050 100 700 387 
Q 350 675 250 1225 
z
" transform="scale(0.015625)"/>
      </defs>
      <use xlink:href="#SimHei-33"/>
     </g>
    </g>
    <g id="patch_13">
     <path d="M 338.472 147.511321 
L 777.6 147.511321 
L 777.6 125.959517 
L 338.472 125.959517 
z
" style="fill: #f5f5f5; stroke: #cccccc; stroke-linejoin: miter"/>
    </g>
    <g id="text_12">
     <!-- Prob031_dff, Prob035_count1to10, Prob041_dff8r -->
     <g transform="translate(466.036 139.016669) scale(0.08 -0.08)">
      <defs>
       <path id="SimHei-63" d="M 2850 1250 
Q 2850 725 2487 400 
Q 2125 75 1575 75 
Q 1025 75 625 462 
Q 225 850 225 1525 
Q 225 2200 625 2587 
Q 1025 2975 1575 2975 
Q 2125 2975 2450 2687 
Q 2775 2400 2775 2000 
L 2225 2000 
Q 2200 2300 2012 2412 
Q 1825 2525 1575 2525 
Q 1275 2525 1025 2287 
Q 775 2050 775 1525 
Q 775 1000 1025 762 
Q 1275 525 1575 525 
Q 1900 525 2100 700 
Q 2300 875 2300 1250 
L 2850 1250 
z
" transform="scale(0.015625)"/>
       <path id="SimHei-75" d="M 2800 125 
L 2300 125 
L 2300 650 
Q 2100 375 1862 225 
Q 1625 75 1250 75 
Q 800 75 575 325 
Q 350 575 350 950 
L 350 2925 
L 850 2925 
L 850 1125 
Q 850 825 1000 650 
Q 1150 475 1400 475 
Q 1725 475 2012 812 
Q 2300 1150 2300 1650 
L 2300 2925 
L 2800 2925 
L 2800 125 
z
" transform="scale(0.015625)"/>
       <path id="SimHei-38" d="M 175 1375 
Q 175 1675 325 1962 
Q 475 2250 825 2425 
Q 525 2600 425 2812 
Q 325 3025 312 3300 
Q 300 3575 387 3775 
Q 475 3975 650 4150 
Q 825 4325 1037 4387 
Q 1250 4450 1500 4450 
Q 1750 4450 1950 4400 
Q 2150 4350 2375 4187 
Q 2600 4025 2700 3725 
Q 2800 3425 2687 3025 
Q 2575 2625 2100 2400 
Q 2525 2275 2700 2012 
Q 2875 1750 2875 1375 
Q 2875 1000 2762 775 
Q 2650 550 2512 400 
Q 2375 250 2137 162 
Q 1900 75 1537 75 
Q 1175 75 912 162 
Q 650 250 475 425 
Q 300 600 237 837 
Q 175 1075 175 1375 
z
M 687 1400 
Q 675 1100 787 875 
Q 900 650 1200 587 
Q 1500 525 1825 600 
Q 2150 675 2275 950 
Q 2400 1225 2362 1500 
Q 2325 1775 2050 1962 
Q 1775 2150 1450 2125 
Q 1125 2100 912 1900 
Q 700 1700 687 1400 
z
M 775 3350 
Q 775 3100 950 2875 
Q 1125 2650 1500 2650 
Q 1875 2650 2062 2875 
Q 2250 3100 2237 3412 
Q 2225 3725 2012 3875 
Q 1800 4025 1437 4000 
Q 1075 3975 925 3787 
Q 775 3600 775 3350 
z
" transform="scale(0.015625)"/>
      </defs>
      <use xlink:href="#SimHei-50"/>
      <use xlink:href="#SimHei-72" transform="translate(50 0)"/>
      <use xlink:href="#SimHei-6f" transform="translate(100 0)"/>
      <use xlink:href="#SimHei-62" transform="translate(150 0)"/>
      <use xlink:href="#SimHei-30" transform="translate(200 0)"/>
      <use xlink:href="#SimHei-33" transform="translate(250 0)"/>
      <use xlink:href="#SimHei-31" transform="translate(300 0)"/>
      <use xlink:href="#SimHei-5f" transform="translate(350 0)"/>
      <use xlink:href="#SimHei-64" transform="translate(400 0)"/>
      <use xlink:href="#SimHei-66" transform="translate(450 0)"/>
      <use xlink:href="#SimHei-66" transform="translate(500 0)"/>
      <use xlink:href="#SimHei-2c" transform="translate(550 0)"/>
      <use xlink:href="#SimHei-20" transform="translate(600 0)"/>
      <use xlink:href="#SimHei-50" transform="translate(650 0)"/>
      <use xlink:href="#SimHei-72" transform="translate(700 0)"/>
      <use xlink:href="#SimHei-6f" transform="translate(750 0)"/>
      <use xlink:href="#SimHei-62" transform="translate(800 0)"/>
      <use xlink:href="#SimHei-30" transform="translate(850 0)"/>
      <use xlink:href="#SimHei-33" transform="translate(900 0)"/>
      <use xlink:href="#SimHei-35" transform="translate(950 0)"/>
      <use xlink:href="#SimHei-5f" transform="translate(1000 0)"/>
      <use xlink:href="#SimHei-63" transform="translate(1050 0)"/>
      <use xlink:href="#SimHei-6f" transform="translate(1100 0)"/>
      <use xlink:href="#SimHei-75" transform="translate(1150 0)"/>
      <use xlink:href="#SimHei-6e" transform="translate(1200 0)"/>
      <use xlink:href="#SimHei-74" transform="translate(1250 0)"/>
      <use xlink:href="#SimHei-31" transform="translate(1300 0)"/>
      <use xlink:href="#SimHei-74" transform="translate(1350 0)"/>
      <use xlink:href="#SimHei-6f" transform="translate(1400 0)"/>
      <use xlink:href="#SimHei-31" transform="translate(1450 0)"/>
      <use xlink:href="#SimHei-30" transform="translate(1500 0)"/>
      <use xlink:href="#SimHei-2c" transform="translate(1550 0)"/>
      <use xlink:href="#SimHei-20" transform="translate(1600 0)"/>
      <use xlink:href="#SimHei-50" transform="translate(1650 0)"/>
      <use xlink:href="#SimHei-72" transform="translate(1700 0)"/>
      <use xlink:href="#SimHei-6f" transform="translate(1750 0)"/>
      <use xlink:href="#SimHei-62" transform="translate(1800 0)"/>
      <use xlink:href="#SimHei-30" transform="translate(1850 0)"/>
      <use xlink:href="#SimHei-34" transform="translate(1900 0)"/>
      <use xlink:href="#SimHei-31" transform="translate(1950 0)"/>
      <use xlink:href="#SimHei-5f" transform="translate(2000 0)"/>
      <use xlink:href="#SimHei-64" transform="translate(2050 0)"/>
      <use xlink:href="#SimHei-66" transform="translate(2100 0)"/>
      <use xlink:href="#SimHei-66" transform="translate(2150 0)"/>
      <use xlink:href="#SimHei-38" transform="translate(2200 0)"/>
      <use xlink:href="#SimHei-72" transform="translate(2250 0)"/>
     </g>
    </g>
    <g id="patch_14">
     <path d="M 7.2 169.063125 
L 122.76 169.063125 
L 122.76 147.511321 
L 7.2 147.511321 
z
" style="fill: #ffffff; stroke: #cccccc; stroke-linejoin: miter"/>
    </g>
    <g id="text_13">
     <!-- Medium -->
     <g transform="translate(52.98 160.537223) scale(0.08 -0.08)">
      <defs>
       <path id="SimHei-4d" d="M 2925 125 
L 2425 125 
L 2425 3175 
L 2375 3175 
L 1775 125 
L 1375 125 
L 775 3175 
L 725 3175 
L 725 125 
L 225 125 
L 225 4400 
L 1000 4400 
L 1550 1575 
L 1600 1575 
L 2150 4400 
L 2925 4400 
L 2925 125 
z
" transform="scale(0.015625)"/>
      </defs>
      <use xlink:href="#SimHei-4d"/>
      <use xlink:href="#SimHei-65" transform="translate(50 0)"/>
      <use xlink:href="#SimHei-64" transform="translate(100 0)"/>
      <use xlink:href="#SimHei-69" transform="translate(150 0)"/>
      <use xlink:href="#SimHei-75" transform="translate(200 0)"/>
      <use xlink:href="#SimHei-6d" transform="translate(250 0)"/>
     </g>
    </g>
    <g id="patch_15">
     <path d="M 122.76 169.063125 
L 276.84 169.063125 
L 276.84 147.511321 
L 122.76 147.511321 
z
" style="fill: #ffffff; stroke: #cccccc; stroke-linejoin: miter"/>
    </g>
    <g id="text_14">
     <!-- 组合逻辑 (Comb) -->
     <g transform="translate(169.8 160.974723) scale(0.08 -0.08)">
      <use xlink:href="#SimHei-7ec4"/>
      <use xlink:href="#SimHei-5408" transform="translate(100 0)"/>
      <use xlink:href="#SimHei-903b" transform="translate(200 0)"/>
      <use xlink:href="#SimHei-8f91" transform="translate(300 0)"/>
      <use xlink:href="#SimHei-20" transform="translate(400 0)"/>
      <use xlink:href="#SimHei-28" transform="translate(450 0)"/>
      <use xlink:href="#SimHei-43" transform="translate(500 0)"/>
      <use xlink:href="#SimHei-6f" transform="translate(550 0)"/>
      <use xlink:href="#SimHei-6d" transform="translate(600 0)"/>
      <use xlink:href="#SimHei-62" transform="translate(650 0)"/>
      <use xlink:href="#SimHei-29" transform="translate(700 0)"/>
     </g>
    </g>
    <g id="patch_16">
     <path d="M 276.84 169.063125 
L 338.472 169.063125 
L 338.472 147.511321 
L 276.84 147.511321 
z
" style="fill: #ffffff; stroke: #cccccc; stroke-linejoin: miter"/>
    </g>
    <g id="text_15">
     <!-- 3 -->
     <g transform="translate(305.656 160.537223) scale(0.08 -0.08)">
      <use xlink:href="#SimHei-33"/>
     </g>
    </g>
    <g id="patch_17">
     <path d="M 338.472 169.063125 
L 777.6 169.063125 
L 777.6 147.511321 
L 338.472 147.511321 
z
" style="fill: #ffffff; stroke: #cccccc; stroke-linejoin: miter"/>
    </g>
    <g id="text_16">
     <!-- Prob022_mux2to1, Prob025_reduction, Prob050_kmap1 -->
     <g transform="translate(460.036 160.568473) scale(0.08 -0.08)">
      <defs>
       <path id="SimHei-78" d="M 2875 125 
L 2275 125 
L 1550 1200 
L 825 125 
L 225 125 
L 1250 1550 
L 300 2925 
L 900 2925 
L 1550 1875 
L 2200 2925 
L 2800 2925 
L 1850 1550 
L 2875 125 
z
" transform="scale(0.015625)"/>
       <path id="SimHei-6b" d="M 2925 125 
L 2350 125 
L 1450 1650 
L 875 1100 
L 875 125 
L 375 125 
L 375 4400 
L 875 4400 
L 875 1675 
L 2125 2925 
L 2750 2925 
L 1775 1975 
L 2925 125 
z
" transform="scale(0.015625)"/>
       <path id="SimHei-70" d="M 2825 1525 
Q 2825 800 2475 425 
Q 2125 50 1625 50 
Q 1350 50 1150 162 
Q 950 275 800 500 
L 800 -800 
L 300 -800 
L 300 2925 
L 800 2925 
L 800 2550 
Q 950 2775 1150 2875 
Q 1350 2975 1625 2975 
Q 2125 2975 2475 2612 
Q 2825 2250 2825 1525 
z
M 2275 1525 
Q 2275 2000 2087 2262 
Q 1900 2525 1525 2525 
Q 1225 2525 1012 2262 
Q 800 2000 800 1525 
Q 800 1050 1012 775 
Q 1225 500 1525 500 
Q 1900 500 2087 775 
Q 2275 1050 2275 1525 
z
" transform="scale(0.015625)"/>
      </defs>
      <use xlink:href="#SimHei-50"/>
      <use xlink:href="#SimHei-72" transform="translate(50 0)"/>
      <use xlink:href="#SimHei-6f" transform="translate(100 0)"/>
      <use xlink:href="#SimHei-62" transform="translate(150 0)"/>
      <use xlink:href="#SimHei-30" transform="translate(200 0)"/>
      <use xlink:href="#SimHei-32" transform="translate(250 0)"/>
      <use xlink:href="#SimHei-32" transform="translate(300 0)"/>
      <use xlink:href="#SimHei-5f" transform="translate(350 0)"/>
      <use xlink:href="#SimHei-6d" transform="translate(400 0)"/>
      <use xlink:href="#SimHei-75" transform="translate(450 0)"/>
      <use xlink:href="#SimHei-78" transform="translate(500 0)"/>
      <use xlink:href="#SimHei-32" transform="translate(550 0)"/>
      <use xlink:href="#SimHei-74" transform="translate(600 0)"/>
      <use xlink:href="#SimHei-6f" transform="translate(650 0)"/>
      <use xlink:href="#SimHei-31" transform="translate(700 0)"/>
      <use xlink:href="#SimHei-2c" transform="translate(750 0)"/>
      <use xlink:href="#SimHei-20" transform="translate(800 0)"/>
      <use xlink:href="#SimHei-50" transform="translate(850 0)"/>
      <use xlink:href="#SimHei-72" transform="translate(900 0)"/>
      <use xlink:href="#SimHei-6f" transform="translate(950 0)"/>
      <use xlink:href="#SimHei-62" transform="translate(1000 0)"/>
      <use xlink:href="#SimHei-30" transform="translate(1050 0)"/>
      <use xlink:href="#SimHei-32" transform="translate(1100 0)"/>
      <use xlink:href="#SimHei-35" transform="translate(1150 0)"/>
      <use xlink:href="#SimHei-5f" transform="translate(1200 0)"/>
      <use xlink:href="#SimHei-72" transform="translate(1250 0)"/>
      <use xlink:href="#SimHei-65" transform="translate(1300 0)"/>
      <use xlink:href="#SimHei-64" transform="translate(1350 0)"/>
      <use xlink:href="#SimHei-75" transform="translate(1400 0)"/>
      <use xlink:href="#SimHei-63" transform="translate(1450 0)"/>
      <use xlink:href="#SimHei-74" transform="translate(1500 0)"/>
      <use xlink:href="#SimHei-69" transform="translate(1550 0)"/>
      <use xlink:href="#SimHei-6f" transform="translate(1600 0)"/>
      <use xlink:href="#SimHei-6e" transform="translate(1650 0)"/>
      <use xlink:href="#SimHei-2c" transform="translate(1700 0)"/>
      <use xlink:href="#SimHei-20" transform="translate(1750 0)"/>
      <use xlink:href="#SimHei-50" transform="translate(1800 0)"/>
      <use xlink:href="#SimHei-72" transform="translate(1850 0)"/>
      <use xlink:href="#SimHei-6f" transform="translate(1900 0)"/>
      <use xlink:href="#SimHei-62" transform="translate(1950 0)"/>
      <use xlink:href="#SimHei-30" transform="translate(2000 0)"/>
      <use xlink:href="#SimHei-35" transform="translate(2050 0)"/>
      <use xlink:href="#SimHei-30" transform="translate(2100 0)"/>
      <use xlink:href="#SimHei-5f" transform="translate(2150 0)"/>
      <use xlink:href="#SimHei-6b" transform="translate(2200 0)"/>
      <use xlink:href="#SimHei-6d" transform="translate(2250 0)"/>
      <use xlink:href="#SimHei-61" transform="translate(2300 0)"/>
      <use xlink:href="#SimHei-70" transform="translate(2350 0)"/>
      <use xlink:href="#SimHei-31" transform="translate(2400 0)"/>
     </g>
    </g>
    <g id="patch_18">
     <path d="M 7.2 190.614929 
L 122.76 190.614929 
L 122.76 169.063125 
L 7.2 169.063125 
z
" style="fill: #f5f5f5; stroke: #cccccc; stroke-linejoin: miter"/>
    </g>
    <g id="text_17">
     <!-- Medium -->
     <g transform="translate(52.98 182.089027) scale(0.08 -0.08)">
      <use xlink:href="#SimHei-4d"/>
      <use xlink:href="#SimHei-65" transform="translate(50 0)"/>
      <use xlink:href="#SimHei-64" transform="translate(100 0)"/>
      <use xlink:href="#SimHei-69" transform="translate(150 0)"/>
      <use xlink:href="#SimHei-75" transform="translate(200 0)"/>
      <use xlink:href="#SimHei-6d" transform="translate(250 0)"/>
     </g>
    </g>
    <g id="patch_19">
     <path d="M 122.76 190.614929 
L 276.84 190.614929 
L 276.84 169.063125 
L 122.76 169.063125 
z
" style="fill: #f5f5f5; stroke: #cccccc; stroke-linejoin: miter"/>
    </g>
    <g id="text_18">
     <!-- 时序逻辑 (Seq) -->
     <g transform="translate(171.8 182.635902) scale(0.08 -0.08)">
      <use xlink:href="#SimHei-65f6"/>
      <use xlink:href="#SimHei-5e8f" transform="translate(100 0)"/>
      <use xlink:href="#SimHei-903b" transform="translate(200 0)"/>
      <use xlink:href="#SimHei-8f91" transform="translate(300 0)"/>
      <use xlink:href="#SimHei-20" transform="translate(400 0)"/>
      <use xlink:href="#SimHei-28" transform="translate(450 0)"/>
      <use xlink:href="#SimHei-53" transform="translate(500 0)"/>
      <use xlink:href="#SimHei-65" transform="translate(550 0)"/>
      <use xlink:href="#SimHei-71" transform="translate(600 0)"/>
      <use xlink:href="#SimHei-29" transform="translate(650 0)"/>
     </g>
    </g>
    <g id="patch_20">
     <path d="M 276.84 190.614929 
L 338.472 190.614929 
L 338.472 169.063125 
L 276.84 169.063125 
z
" style="fill: #f5f5f5; stroke: #cccccc; stroke-linejoin: miter"/>
    </g>
    <g id="text_19">
     <!-- 4 -->
     <g transform="translate(305.656 182.089027) scale(0.08 -0.08)">
      <use xlink:href="#SimHei-34"/>
     </g>
    </g>
    <g id="patch_21">
     <path d="M 338.472 190.614929 
L 777.6 190.614929 
L 777.6 169.063125 
L 338.472 169.063125 
z
" style="fill: #f5f5f5; stroke: #cccccc; stroke-linejoin: miter"/>
    </g>
    <g id="text_20">
     <!-- Prob054_edgedetect, Prob068_countbcd, -->
     <g transform="translate(484.036 178.198402) scale(0.08 -0.08)">
      <defs>
       <path id="SimHei-36" d="M 250 1612 
Q 275 1975 387 2225 
Q 500 2475 725 2850 
L 1750 4450 
L 2325 4450 
L 1275 2800 
Q 1950 2975 2350 2750 
Q 2750 2525 2887 2237 
Q 3025 1950 3037 1612 
Q 3050 1275 2937 950 
Q 2825 625 2537 362 
Q 2250 100 1737 75 
Q 1225 50 862 262 
Q 500 475 362 862 
Q 225 1250 250 1612 
z
M 1025 787 
Q 1250 550 1625 525 
Q 2000 500 2250 775 
Q 2500 1050 2500 1575 
Q 2500 2100 2187 2300 
Q 1875 2500 1487 2450 
Q 1100 2400 925 2075 
Q 750 1750 775 1387 
Q 800 1025 1025 787 
z
" transform="scale(0.015625)"/>
      </defs>
      <use xlink:href="#SimHei-50"/>
      <use xlink:href="#SimHei-72" transform="translate(50 0)"/>
      <use xlink:href="#SimHei-6f" transform="translate(100 0)"/>
      <use xlink:href="#SimHei-62" transform="translate(150 0)"/>
      <use xlink:href="#SimHei-30" transform="translate(200 0)"/>
      <use xlink:href="#SimHei-35" transform="translate(250 0)"/>
      <use xlink:href="#SimHei-34" transform="translate(300 0)"/>
      <use xlink:href="#SimHei-5f" transform="translate(350 0)"/>
      <use xlink:href="#SimHei-65" transform="translate(400 0)"/>
      <use xlink:href="#SimHei-64" transform="translate(450 0)"/>
      <use xlink:href="#SimHei-67" transform="translate(500 0)"/>
      <use xlink:href="#SimHei-65" transform="translate(550 0)"/>
      <use xlink:href="#SimHei-64" transform="translate(600 0)"/>
      <use xlink:href="#SimHei-65" transform="translate(650 0)"/>
      <use xlink:href="#SimHei-74" transform="translate(700 0)"/>
      <use xlink:href="#SimHei-65" transform="translate(750 0)"/>
      <use xlink:href="#SimHei-63" transform="translate(800 0)"/>
      <use xlink:href="#SimHei-74" transform="translate(850 0)"/>
      <use xlink:href="#SimHei-2c" transform="translate(900 0)"/>
      <use xlink:href="#SimHei-20" transform="translate(950 0)"/>
      <use xlink:href="#SimHei-50" transform="translate(1000 0)"/>
      <use xlink:href="#SimHei-72" transform="translate(1050 0)"/>
      <use xlink:href="#SimHei-6f" transform="translate(1100 0)"/>
      <use xlink:href="#SimHei-62" transform="translate(1150 0)"/>
      <use xlink:href="#SimHei-30" transform="translate(1200 0)"/>
      <use xlink:href="#SimHei-36" transform="translate(1250 0)"/>
      <use xlink:href="#SimHei-38" transform="translate(1300 0)"/>
      <use xlink:href="#SimHei-5f" transform="translate(1350 0)"/>
      <use xlink:href="#SimHei-63" transform="translate(1400 0)"/>
      <use xlink:href="#SimHei-6f" transform="translate(1450 0)"/>
      <use xlink:href="#SimHei-75" transform="translate(1500 0)"/>
      <use xlink:href="#SimHei-6e" transform="translate(1550 0)"/>
      <use xlink:href="#SimHei-74" transform="translate(1600 0)"/>
      <use xlink:href="#SimHei-62" transform="translate(1650 0)"/>
      <use xlink:href="#SimHei-63" transform="translate(1700 0)"/>
      <use xlink:href="#SimHei-64" transform="translate(1750 0)"/>
      <use xlink:href="#SimHei-2c" transform="translate(1800 0)"/>
     </g>
     <!-- Prob082_lfsr32, Prob085_shift4 -->
     <g transform="translate(498.036 186.010902) scale(0.08 -0.08)">
      <defs>
       <path id="SimHei-6c" d="M 1825 125 
L 1325 125 
L 1325 4400 
L 1825 4400 
L 1825 125 
z
" transform="scale(0.015625)"/>
      </defs>
      <use xlink:href="#SimHei-50"/>
      <use xlink:href="#SimHei-72" transform="translate(50 0)"/>
      <use xlink:href="#SimHei-6f" transform="translate(100 0)"/>
      <use xlink:href="#SimHei-62" transform="translate(150 0)"/>
      <use xlink:href="#SimHei-30" transform="translate(200 0)"/>
      <use xlink:href="#SimHei-38" transform="translate(250 0)"/>
      <use xlink:href="#SimHei-32" transform="translate(300 0)"/>
      <use xlink:href="#SimHei-5f" transform="translate(350 0)"/>
      <use xlink:href="#SimHei-6c" transform="translate(400 0)"/>
      <use xlink:href="#SimHei-66" transform="translate(450 0)"/>
      <use xlink:href="#SimHei-73" transform="translate(500 0)"/>
      <use xlink:href="#SimHei-72" transform="translate(550 0)"/>
      <use xlink:href="#SimHei-33" transform="translate(600 0)"/>
      <use xlink:href="#SimHei-32" transform="translate(650 0)"/>
      <use xlink:href="#SimHei-2c" transform="translate(700 0)"/>
      <use xlink:href="#SimHei-20" transform="translate(750 0)"/>
      <use xlink:href="#SimHei-50" transform="translate(800 0)"/>
      <use xlink:href="#SimHei-72" transform="translate(850 0)"/>
      <use xlink:href="#SimHei-6f" transform="translate(900 0)"/>
      <use xlink:href="#SimHei-62" transform="translate(950 0)"/>
      <use xlink:href="#SimHei-30" transform="translate(1000 0)"/>
      <use xlink:href="#SimHei-38" transform="translate(1050 0)"/>
      <use xlink:href="#SimHei-35" transform="translate(1100 0)"/>
      <use xlink:href="#SimHei-5f" transform="translate(1150 0)"/>
      <use xlink:href="#SimHei-73" transform="translate(1200 0)"/>
      <use xlink:href="#SimHei-68" transform="translate(1250 0)"/>
      <use xlink:href="#SimHei-69" transform="translate(1300 0)"/>
      <use xlink:href="#SimHei-66" transform="translate(1350 0)"/>
      <use xlink:href="#SimHei-74" transform="translate(1400 0)"/>
      <use xlink:href="#SimHei-34" transform="translate(1450 0)"/>
     </g>
    </g>
    <g id="patch_22">
     <path d="M 7.2 212.166733 
L 122.76 212.166733 
L 122.76 190.614929 
L 7.2 190.614929 
z
" style="fill: #ffffff; stroke: #cccccc; stroke-linejoin: miter"/>
    </g>
    <g id="text_21">
     <!-- Medium-Hard -->
     <g transform="translate(42.98 203.640831) scale(0.08 -0.08)">
      <defs>
       <path id="SimHei-2d" d="M 2975 2125 
L 125 2125 
L 125 2525 
L 2975 2525 
L 2975 2125 
z
" transform="scale(0.015625)"/>
       <path id="SimHei-48" d="M 2850 125 
L 2275 125 
L 2275 2125 
L 850 2125 
L 850 125 
L 275 125 
L 275 4400 
L 850 4400 
L 850 2600 
L 2275 2600 
L 2275 4400 
L 2850 4400 
L 2850 125 
z
" transform="scale(0.015625)"/>
      </defs>
      <use xlink:href="#SimHei-4d"/>
      <use xlink:href="#SimHei-65" transform="translate(50 0)"/>
      <use xlink:href="#SimHei-64" transform="translate(100 0)"/>
      <use xlink:href="#SimHei-69" transform="translate(150 0)"/>
      <use xlink:href="#SimHei-75" transform="translate(200 0)"/>
      <use xlink:href="#SimHei-6d" transform="translate(250 0)"/>
      <use xlink:href="#SimHei-2d" transform="translate(300 0)"/>
      <use xlink:href="#SimHei-48" transform="translate(350 0)"/>
      <use xlink:href="#SimHei-61" transform="translate(400 0)"/>
      <use xlink:href="#SimHei-72" transform="translate(450 0)"/>
      <use xlink:href="#SimHei-64" transform="translate(500 0)"/>
     </g>
    </g>
    <g id="patch_23">
     <path d="M 122.76 212.166733 
L 276.84 212.166733 
L 276.84 190.614929 
L 122.76 190.614929 
z
" style="fill: #ffffff; stroke: #cccccc; stroke-linejoin: miter"/>
    </g>
    <g id="text_22">
     <!-- 组合逻辑 (Comb) -->
     <g transform="translate(169.8 204.078331) scale(0.08 -0.08)">
      <use xlink:href="#SimHei-7ec4"/>
      <use xlink:href="#SimHei-5408" transform="translate(100 0)"/>
      <use xlink:href="#SimHei-903b" transform="translate(200 0)"/>
      <use xlink:href="#SimHei-8f91" transform="translate(300 0)"/>
      <use xlink:href="#SimHei-20" transform="translate(400 0)"/>
      <use xlink:href="#SimHei-28" transform="translate(450 0)"/>
      <use xlink:href="#SimHei-43" transform="translate(500 0)"/>
      <use xlink:href="#SimHei-6f" transform="translate(550 0)"/>
      <use xlink:href="#SimHei-6d" transform="translate(600 0)"/>
      <use xlink:href="#SimHei-62" transform="translate(650 0)"/>
      <use xlink:href="#SimHei-29" transform="translate(700 0)"/>
     </g>
    </g>
    <g id="patch_24">
     <path d="M 276.84 212.166733 
L 338.472 212.166733 
L 338.472 190.614929 
L 276.84 190.614929 
z
" style="fill: #ffffff; stroke: #cccccc; stroke-linejoin: miter"/>
    </g>
    <g id="text_23">
     <!-- 1 -->
     <g transform="translate(305.656 203.640831) scale(0.08 -0.08)">
      <use xlink:href="#SimHei-31"/>
     </g>
    </g>
    <g id="patch_25">
     <path d="M 338.472 212.166733 
L 777.6 212.166733 
L 777.6 190.614929 
L 338.472 190.614929 
z
" style="fill: #ffffff; stroke: #cccccc; stroke-linejoin: miter"/>
    </g>
    <g id="text_24">
     <!-- Prob030_popcount255 -->
     <g transform="translate(520.036 203.672081) scale(0.08 -0.08)">
      <use xlink:href="#SimHei-50"/>
      <use xlink:href="#SimHei-72" transform="translate(50 0)"/>
      <use xlink:href="#SimHei-6f" transform="translate(100 0)"/>
      <use xlink:href="#SimHei-62" transform="translate(150 0)"/>
      <use xlink:href="#SimHei-30" transform="translate(200 0)"/>
      <use xlink:href="#SimHei-33" transform="translate(250 0)"/>
      <use xlink:href="#SimHei-30" transform="translate(300 0)"/>
      <use xlink:href="#SimHei-5f" transform="translate(350 0)"/>
      <use xlink:href="#SimHei-70" transform="translate(400 0)"/>
      <use xlink:href="#SimHei-6f" transform="translate(450 0)"/>
      <use xlink:href="#SimHei-70" transform="translate(500 0)"/>
      <use xlink:href="#SimHei-63" transform="translate(550 0)"/>
      <use xlink:href="#SimHei-6f" transform="translate(600 0)"/>
      <use xlink:href="#SimHei-75" transform="translate(650 0)"/>
      <use xlink:href="#SimHei-6e" transform="translate(700 0)"/>
      <use xlink:href="#SimHei-74" transform="translate(750 0)"/>
      <use xlink:href="#SimHei-32" transform="translate(800 0)"/>
      <use xlink:href="#SimHei-35" transform="translate(850 0)"/>
      <use xlink:href="#SimHei-35" transform="translate(900 0)"/>
     </g>
    </g>
    <g id="patch_26">
     <path d="M 7.2 233.718536 
L 122.76 233.718536 
L 122.76 212.166733 
L 7.2 212.166733 
z
" style="fill: #f5f5f5; stroke: #cccccc; stroke-linejoin: miter"/>
    </g>
    <g id="text_25">
     <!-- Hard -->
     <g transform="translate(56.98 225.192634) scale(0.08 -0.08)">
      <use xlink:href="#SimHei-48"/>
      <use xlink:href="#SimHei-61" transform="translate(50 0)"/>
      <use xlink:href="#SimHei-72" transform="translate(100 0)"/>
      <use xlink:href="#SimHei-64" transform="translate(150 0)"/>
     </g>
    </g>
    <g id="patch_27">
     <path d="M 122.76 233.718536 
L 276.84 233.718536 
L 276.84 212.166733 
L 122.76 212.166733 
z
" style="fill: #f5f5f5; stroke: #cccccc; stroke-linejoin: miter"/>
    </g>
    <g id="text_26">
     <!-- 有限状态机 (FSM) -->
     <g transform="translate(167.8 225.614509) scale(0.08 -0.08)">
      <defs>
       <path id="SimHei-6709" d="M 275 1625 
Q 850 1975 1400 2537 
Q 1950 3100 2400 3925 
L 1500 3925 
Q 1150 3925 625 3900 
L 625 4375 
Q 1275 4350 1600 4350 
L 2550 4350 
Q 2750 4950 2775 5225 
Q 3150 5125 3375 5075 
Q 3300 5000 3125 4350 
L 5150 4350 
Q 5575 4350 6025 4375 
L 6025 3900 
Q 5575 3925 5225 3925 
L 2975 3925 
Q 2800 3600 2600 3275 
L 5475 3275 
Q 5450 2650 5450 2150 
L 5450 125 
Q 5450 -225 5250 -387 
Q 5050 -550 4400 -600 
Q 4375 -325 4225 0 
Q 4600 -50 4775 -25 
Q 4950 0 4950 250 
L 4950 750 
L 2350 750 
L 2350 -575 
L 1800 -575 
Q 1825 50 1825 500 
L 1825 2275 
Q 1300 1675 725 1225 
Q 625 1400 275 1625 
z
M 4950 2175 
L 4950 2875 
L 2350 2875 
L 2350 2175 
L 4950 2175 
z
M 4950 1150 
L 4950 1775 
L 2350 1775 
L 2350 1150 
L 4950 1150 
z
" transform="scale(0.015625)"/>
       <path id="SimHei-9650" d="M 5550 4950 
Q 5525 4500 5525 3700 
Q 5525 2925 5550 2475 
L 4375 2475 
Q 4375 2000 4625 1475 
Q 5275 1900 5475 2250 
Q 5675 1950 5850 1800 
Q 5400 1575 4750 1150 
Q 5025 775 5325 500 
Q 5625 225 6200 25 
Q 5900 -125 5750 -450 
Q 5150 -75 4812 312 
Q 4475 700 4262 1212 
Q 4050 1725 3975 2475 
L 3400 2475 
L 3400 200 
Q 3800 400 4125 675 
Q 4150 450 4225 150 
Q 4000 25 3637 -175 
Q 3275 -375 3025 -575 
Q 2925 -375 2750 -125 
Q 2900 25 2950 325 
L 2950 3850 
Q 2950 4350 2925 4950 
L 5550 4950 
z
M 2500 4950 
Q 2050 3475 1875 2950 
Q 2375 2350 2450 1850 
Q 2525 1350 2237 1025 
Q 1950 700 1525 575 
Q 1500 900 1300 1150 
Q 1750 1150 1875 1325 
Q 2000 1500 1975 1887 
Q 1950 2275 1375 2925 
Q 1775 4050 1875 4550 
L 1125 4550 
L 1125 -500 
L 650 -500 
Q 675 200 675 875 
L 675 3800 
Q 675 4250 650 4950 
L 2500 4950 
z
M 5075 2875 
L 5075 3550 
L 3400 3550 
L 3400 2875 
L 5075 2875 
z
M 5075 3925 
L 5075 4550 
L 3400 4550 
L 3400 3925 
L 5075 3925 
z
" transform="scale(0.015625)"/>
       <path id="SimHei-72b6" d="M 2225 -275 
Q 2675 25 2975 475 
Q 3275 925 3450 1350 
Q 3625 1775 3700 2175 
Q 3775 2575 3800 2875 
L 3225 2875 
Q 2850 2875 2500 2850 
L 2500 3325 
Q 2850 3300 3200 3300 
L 3825 3300 
Q 3825 3975 3812 4375 
Q 3800 4775 3775 5075 
L 4425 5075 
Q 4350 4750 4337 4412 
Q 4325 4075 4325 3300 
L 5350 3300 
Q 5625 3300 5975 3325 
L 5975 2850 
Q 5625 2875 5350 2875 
L 4375 2875 
Q 4675 1450 5012 962 
Q 5350 475 5625 262 
Q 5900 50 6125 -75 
Q 5775 -225 5625 -525 
Q 5225 -200 4987 112 
Q 4750 425 4587 725 
Q 4425 1025 4312 1337 
Q 4200 1650 4125 2000 
Q 4000 1400 3812 975 
Q 3625 550 3425 237 
Q 3225 -75 2750 -625 
Q 2525 -400 2225 -275 
z
M 2225 5200 
Q 2200 4825 2200 4250 
L 2200 775 
Q 2200 50 2225 -625 
L 1675 -625 
Q 1700 75 1700 775 
L 1700 1950 
Q 1525 1750 1200 1350 
Q 875 950 700 750 
Q 500 1000 275 1150 
Q 575 1375 912 1712 
Q 1250 2050 1700 2600 
L 1700 4250 
Q 1700 4825 1675 5200 
L 2225 5200 
z
M 625 4325 
Q 800 4125 1000 3875 
Q 1200 3625 1375 3375 
Q 1175 3225 1050 3075 
Q 850 3350 250 4050 
Q 400 4175 625 4325 
z
M 5475 3650 
Q 5250 3975 4700 4475 
Q 4900 4625 5025 4750 
Q 5250 4575 5425 4387 
Q 5600 4200 5825 3975 
Q 5625 3800 5475 3650 
z
" transform="scale(0.015625)"/>
       <path id="SimHei-6001" d="M 2575 4325 
Q 2700 4800 2725 5250 
Q 3075 5125 3350 5100 
Q 3225 4875 3100 4325 
L 5025 4325 
Q 5375 4325 5825 4375 
L 5825 3850 
Q 5350 3875 5000 3875 
L 3975 3875 
Q 4225 3300 4575 2987 
Q 4925 2675 5250 2525 
Q 5575 2375 6100 2275 
Q 5800 2075 5675 1775 
Q 4900 2100 4525 2412 
Q 4150 2725 3900 3075 
Q 3650 3425 3500 3875 
L 2975 3875 
Q 2675 3200 2187 2687 
Q 1700 2175 725 1625 
Q 650 1850 300 2075 
Q 900 2275 1512 2750 
Q 2125 3225 2425 3875 
L 1300 3875 
Q 900 3875 450 3850 
L 450 4375 
Q 875 4325 1300 4325 
L 2575 4325 
z
M 2525 1350 
Q 2500 875 2500 575 
Q 2500 300 2512 150 
Q 2525 0 2800 0 
L 3825 0 
Q 4025 -25 4175 62 
Q 4325 150 4400 625 
Q 4650 450 4975 375 
Q 4775 -150 4625 -312 
Q 4475 -475 4000 -450 
L 2500 -450 
Q 2050 -400 2012 -162 
Q 1975 75 1975 425 
Q 1975 800 1950 1350 
L 2525 1350 
z
M 1425 1175 
Q 1175 450 825 -325 
Q 625 -175 325 -125 
Q 775 625 875 1375 
Q 1175 1250 1425 1175 
z
M 5175 1525 
Q 5600 950 6050 350 
Q 5800 175 5600 0 
Q 5225 700 4750 1250 
Q 5000 1350 5175 1525 
z
M 2700 3050 
Q 3175 2675 3500 2325 
Q 3275 2175 3100 1975 
Q 2825 2350 2350 2700 
L 2700 3050 
z
M 3375 1750 
Q 3625 1350 3825 925 
Q 3625 800 3375 675 
Q 3200 1175 2950 1525 
Q 3175 1600 3375 1750 
z
" transform="scale(0.015625)"/>
       <path id="SimHei-673a" d="M 5100 4775 
Q 5075 4075 5075 3575 
L 5075 325 
Q 5075 0 5225 -25 
Q 5375 -50 5475 -37 
Q 5575 -25 5612 137 
Q 5650 300 5650 625 
Q 5875 500 6175 425 
Q 6075 -100 5975 -275 
Q 5875 -450 5650 -450 
L 5125 -450 
Q 4825 -450 4687 -312 
Q 4550 -175 4575 250 
L 4575 4350 
L 3625 4350 
Q 3625 2925 3587 2137 
Q 3550 1350 3362 712 
Q 3175 75 2625 -575 
Q 2500 -425 2175 -175 
Q 2525 100 2737 500 
Q 2950 900 3025 1325 
Q 3100 1750 3125 2225 
Q 3150 2700 3150 3425 
Q 3150 4175 3125 4775 
L 5100 4775 
z
M 2150 2725 
Q 2550 2175 2750 1875 
Q 2575 1725 2325 1550 
Q 2175 1875 1800 2425 
L 1800 600 
Q 1800 100 1825 -525 
L 1275 -525 
Q 1300 100 1300 600 
L 1300 2200 
Q 1175 1825 1025 1487 
Q 875 1150 600 725 
Q 375 975 200 1125 
Q 400 1350 725 2000 
Q 1050 2650 1225 3450 
L 1075 3450 
Q 725 3450 375 3400 
L 375 3875 
Q 725 3850 1050 3850 
L 1300 3850 
L 1300 4350 
Q 1300 4750 1275 5100 
L 1850 5100 
Q 1800 4850 1800 4350 
L 1800 3850 
L 2075 3850 
Q 2350 3850 2700 3875 
L 2700 3425 
Q 2150 3450 1800 3450 
L 1800 2450 
Q 1950 2575 2150 2725 
z
" transform="scale(0.015625)"/>
       <path id="SimHei-46" d="M 2925 3925 
L 875 3925 
L 875 2525 
L 2425 2525 
L 2425 2050 
L 875 2050 
L 875 125 
L 300 125 
L 300 4400 
L 2925 4400 
L 2925 3925 
z
" transform="scale(0.015625)"/>
      </defs>
      <use xlink:href="#SimHei-6709"/>
      <use xlink:href="#SimHei-9650" transform="translate(100 0)"/>
      <use xlink:href="#SimHei-72b6" transform="translate(200 0)"/>
      <use xlink:href="#SimHei-6001" transform="translate(300 0)"/>
      <use xlink:href="#SimHei-673a" transform="translate(400 0)"/>
      <use xlink:href="#SimHei-20" transform="translate(500 0)"/>
      <use xlink:href="#SimHei-28" transform="translate(550 0)"/>
      <use xlink:href="#SimHei-46" transform="translate(600 0)"/>
      <use xlink:href="#SimHei-53" transform="translate(650 0)"/>
      <use xlink:href="#SimHei-4d" transform="translate(700 0)"/>
      <use xlink:href="#SimHei-29" transform="translate(750 0)"/>
     </g>
    </g>
    <g id="patch_28">
     <path d="M 276.84 233.718536 
L 338.472 233.718536 
L 338.472 212.166733 
L 276.84 212.166733 
z
" style="fill: #f5f5f5; stroke: #cccccc; stroke-linejoin: miter"/>
    </g>
    <g id="text_27">
     <!-- 3 -->
     <g transform="translate(305.656 225.192634) scale(0.08 -0.08)">
      <use xlink:href="#SimHei-33"/>
     </g>
    </g>
    <g id="patch_29">
     <path d="M 338.472 233.718536 
L 777.6 233.718536 
L 777.6 212.166733 
L 338.472 212.166733 
z
" style="fill: #f5f5f5; stroke: #cccccc; stroke-linejoin: miter"/>
    </g>
    <g id="text_28">
     <!-- Prob109_fsm1, Prob127_lemmings1, Prob140_fsm_hdlc -->
     <g transform="translate(460.036 225.223884) scale(0.08 -0.08)">
      <defs>
       <path id="SimHei-39" d="M 800 75 
Q 1350 1000 1700 1750 
Q 1075 1650 662 1912 
Q 250 2175 162 2625 
Q 75 3075 175 3437 
Q 275 3800 487 4037 
Q 700 4275 1000 4375 
Q 1300 4475 1537 4475 
Q 1775 4475 2025 4375 
Q 2275 4275 2475 4075 
Q 2675 3875 2750 3662 
Q 2825 3450 2825 3112 
Q 2825 2775 2575 2250 
Q 2325 1725 1350 75 
L 800 75 
z
M 662 2875 
Q 700 2550 937 2337 
Q 1175 2125 1450 2150 
Q 1725 2175 1887 2300 
Q 2050 2425 2200 2725 
Q 2300 3100 2250 3362 
Q 2200 3625 1987 3800 
Q 1775 3975 1525 3975 
Q 1375 4000 1137 3900 
Q 900 3800 762 3500 
Q 625 3200 662 2875 
z
" transform="scale(0.015625)"/>
      </defs>
      <use xlink:href="#SimHei-50"/>
      <use xlink:href="#SimHei-72" transform="translate(50 0)"/>
      <use xlink:href="#SimHei-6f" transform="translate(100 0)"/>
      <use xlink:href="#SimHei-62" transform="translate(150 0)"/>
      <use xlink:href="#SimHei-31" transform="translate(200 0)"/>
      <use xlink:href="#SimHei-30" transform="translate(250 0)"/>
      <use xlink:href="#SimHei-39" transform="translate(300 0)"/>
      <use xlink:href="#SimHei-5f" transform="translate(350 0)"/>
      <use xlink:href="#SimHei-66" transform="translate(400 0)"/>
      <use xlink:href="#SimHei-73" transform="translate(450 0)"/>
      <use xlink:href="#SimHei-6d" transform="translate(500 0)"/>
      <use xlink:href="#SimHei-31" transform="translate(550 0)"/>
      <use xlink:href="#SimHei-2c" transform="translate(600 0)"/>
      <use xlink:href="#SimHei-20" transform="translate(650 0)"/>
      <use xlink:href="#SimHei-50" transform="translate(700 0)"/>
      <use xlink:href="#SimHei-72" transform="translate(750 0)"/>
      <use xlink:href="#SimHei-6f" transform="translate(800 0)"/>
      <use xlink:href="#SimHei-62" transform="translate(850 0)"/>
      <use xlink:href="#SimHei-31" transform="translate(900 0)"/>
      <use xlink:href="#SimHei-32" transform="translate(950 0)"/>
      <use xlink:href="#SimHei-37" transform="translate(1000 0)"/>
      <use xlink:href="#SimHei-5f" transform="translate(1050 0)"/>
      <use xlink:href="#SimHei-6c" transform="translate(1100 0)"/>
      <use xlink:href="#SimHei-65" transform="translate(1150 0)"/>
      <use xlink:href="#SimHei-6d" transform="translate(1200 0)"/>
      <use xlink:href="#SimHei-6d" transform="translate(1250 0)"/>
      <use xlink:href="#SimHei-69" transform="translate(1300 0)"/>
      <use xlink:href="#SimHei-6e" transform="translate(1350 0)"/>
      <use xlink:href="#SimHei-67" transform="translate(1400 0)"/>
      <use xlink:href="#SimHei-73" transform="translate(1450 0)"/>
      <use xlink:href="#SimHei-31" transform="translate(1500 0)"/>
      <use xlink:href="#SimHei-2c" transform="translate(1550 0)"/>
      <use xlink:href="#SimHei-20" transform="translate(1600 0)"/>
      <use xlink:href="#SimHei-50" transform="translate(1650 0)"/>
      <use xlink:href="#SimHei-72" transform="translate(1700 0)"/>
      <use xlink:href="#SimHei-6f" transform="translate(1750 0)"/>
      <use xlink:href="#SimHei-62" transform="translate(1800 0)"/>
      <use xlink:href="#SimHei-31" transform="translate(1850 0)"/>
      <use xlink:href="#SimHei-34" transform="translate(1900 0)"/>
      <use xlink:href="#SimHei-30" transform="translate(1950 0)"/>
      <use xlink:href="#SimHei-5f" transform="translate(2000 0)"/>
      <use xlink:href="#SimHei-66" transform="translate(2050 0)"/>
      <use xlink:href="#SimHei-73" transform="translate(2100 0)"/>
      <use xlink:href="#SimHei-6d" transform="translate(2150 0)"/>
      <use xlink:href="#SimHei-5f" transform="translate(2200 0)"/>
      <use xlink:href="#SimHei-68" transform="translate(2250 0)"/>
      <use xlink:href="#SimHei-64" transform="translate(2300 0)"/>
      <use xlink:href="#SimHei-6c" transform="translate(2350 0)"/>
      <use xlink:href="#SimHei-63" transform="translate(2400 0)"/>
     </g>
    </g>
    <g id="patch_30">
     <path d="M 7.2 255.27034 
L 122.76 255.27034 
L 122.76 233.718536 
L 7.2 233.718536 
z
" style="fill: #ffffff; stroke: #cccccc; stroke-linejoin: miter"/>
    </g>
    <g id="text_29">
     <!-- Very Hard -->
     <g transform="translate(46.98 246.744438) scale(0.08 -0.08)">
      <defs>
       <path id="SimHei-56" d="M 3050 4400 
L 1800 75 
L 1300 75 
L 50 4400 
L 650 4400 
L 1525 1125 
L 1575 1125 
L 2450 4400 
L 3050 4400 
z
" transform="scale(0.015625)"/>
      </defs>
      <use xlink:href="#SimHei-56"/>
      <use xlink:href="#SimHei-65" transform="translate(50 0)"/>
      <use xlink:href="#SimHei-72" transform="translate(100 0)"/>
      <use xlink:href="#SimHei-79" transform="translate(150 0)"/>
      <use xlink:href="#SimHei-20" transform="translate(200 0)"/>
      <use xlink:href="#SimHei-48" transform="translate(250 0)"/>
      <use xlink:href="#SimHei-61" transform="translate(300 0)"/>
      <use xlink:href="#SimHei-72" transform="translate(350 0)"/>
      <use xlink:href="#SimHei-64" transform="translate(400 0)"/>
     </g>
    </g>
    <g id="patch_31">
     <path d="M 122.76 255.27034 
L 276.84 255.27034 
L 276.84 233.718536 
L 122.76 233.718536 
z
" style="fill: #ffffff; stroke: #cccccc; stroke-linejoin: miter"/>
    </g>
    <g id="text_30">
     <!-- 时序逻辑 (Seq) -->
     <g transform="translate(171.8 247.291313) scale(0.08 -0.08)">
      <use xlink:href="#SimHei-65f6"/>
      <use xlink:href="#SimHei-5e8f" transform="translate(100 0)"/>
      <use xlink:href="#SimHei-903b" transform="translate(200 0)"/>
      <use xlink:href="#SimHei-8f91" transform="translate(300 0)"/>
      <use xlink:href="#SimHei-20" transform="translate(400 0)"/>
      <use xlink:href="#SimHei-28" transform="translate(450 0)"/>
      <use xlink:href="#SimHei-53" transform="translate(500 0)"/>
      <use xlink:href="#SimHei-65" transform="translate(550 0)"/>
      <use xlink:href="#SimHei-71" transform="translate(600 0)"/>
      <use xlink:href="#SimHei-29" transform="translate(650 0)"/>
     </g>
    </g>
    <g id="patch_32">
     <path d="M 276.84 255.27034 
L 338.472 255.27034 
L 338.472 233.718536 
L 276.84 233.718536 
z
" style="fill: #ffffff; stroke: #cccccc; stroke-linejoin: miter"/>
    </g>
    <g id="text_31">
     <!-- 1 -->
     <g transform="translate(305.656 246.744438) scale(0.08 -0.08)">
      <use xlink:href="#SimHei-31"/>
     </g>
    </g>
    <g id="patch_33">
     <path d="M 338.472 255.27034 
L 777.6 255.27034 
L 777.6 233.718536 
L 338.472 233.718536 
z
" style="fill: #ffffff; stroke: #cccccc; stroke-linejoin: miter"/>
    </g>
    <g id="text_32">
     <!-- Prob144_conwaylife -->
     <g transform="translate(522.036 246.744438) scale(0.08 -0.08)">
      <use xlink:href="#SimHei-50"/>
      <use xlink:href="#SimHei-72" transform="translate(50 0)"/>
      <use xlink:href="#SimHei-6f" transform="translate(100 0)"/>
      <use xlink:href="#SimHei-62" transform="translate(150 0)"/>
      <use xlink:href="#SimHei-31" transform="translate(200 0)"/>
      <use xlink:href="#SimHei-34" transform="translate(250 0)"/>
      <use xlink:href="#SimHei-34" transform="translate(300 0)"/>
      <use xlink:href="#SimHei-5f" transform="translate(350 0)"/>
      <use xlink:href="#SimHei-63" transform="translate(400 0)"/>
      <use xlink:href="#SimHei-6f" transform="translate(450 0)"/>
      <use xlink:href="#SimHei-6e" transform="translate(500 0)"/>
      <use xlink:href="#SimHei-77" transform="translate(550 0)"/>
      <use xlink:href="#SimHei-61" transform="translate(600 0)"/>
      <use xlink:href="#SimHei-79" transform="translate(650 0)"/>
      <use xlink:href="#SimHei-6c" transform="translate(700 0)"/>
      <use xlink:href="#SimHei-69" transform="translate(750 0)"/>
      <use xlink:href="#SimHei-66" transform="translate(800 0)"/>
      <use xlink:href="#SimHei-65" transform="translate(850 0)"/>
     </g>
    </g>
   </g>
   <g id="text_33">
    <!-- VerilogEval-Human 20 题子集构成 -->
    <g transform="translate(299.4 17.04375) scale(0.12 -0.12)">
     <defs>
      <path id="SimHei-76" d="M 2875 2925 
L 1825 75 
L 1275 75 
L 225 2925 
L 750 2925 
L 1525 750 
L 1575 750 
L 2350 2925 
L 2875 2925 
z
" transform="scale(0.015625)"/>
      <path id="SimHei-5b50" d="M 2075 25 
Q 2650 0 2800 62 
Q 2950 125 2950 375 
L 2950 2200 
L 1175 2200 
Q 825 2200 350 2175 
L 350 2625 
Q 825 2600 1175 2600 
L 2950 2600 
Q 2950 3000 2925 3500 
Q 3275 3650 3637 3875 
Q 4000 4100 4475 4400 
L 1925 4400 
Q 1400 4400 1000 4375 
L 1000 4825 
Q 1525 4800 1875 4800 
L 5400 4800 
L 5400 4350 
Q 5025 4200 4575 3950 
Q 4125 3700 3450 3250 
L 3450 2600 
L 5125 2600 
Q 5550 2600 6075 2650 
L 6075 2200 
Q 5550 2225 5125 2200 
L 3450 2200 
L 3450 200 
Q 3450 -300 3162 -400 
Q 2875 -500 2300 -550 
Q 2250 -275 2075 25 
z
" transform="scale(0.015625)"/>
      <path id="SimHei-96c6" d="M 2275 4925 
Q 2125 4800 2025 4662 
Q 1925 4525 1850 4350 
L 4925 4350 
Q 5300 4350 5750 4375 
L 5750 3975 
L 3650 3975 
L 3650 3575 
L 4625 3575 
Q 4925 3575 5325 3600 
L 5325 3175 
Q 4925 3200 4625 3200 
L 3650 3200 
L 3650 2800 
L 4675 2800 
Q 5000 2800 5425 2825 
L 5425 2400 
Q 5000 2425 4675 2425 
L 3650 2425 
L 3650 2075 
L 4875 2075 
Q 5275 2075 5675 2100 
L 5675 1675 
Q 5300 1700 4900 1700 
L 1650 1700 
L 1650 1500 
L 1150 1500 
Q 1200 1950 1200 2325 
L 1200 3475 
Q 1050 3250 937 3125 
Q 825 3000 675 2825 
Q 500 3000 300 3125 
Q 475 3325 875 3825 
Q 1275 4325 1462 4650 
Q 1650 4975 1725 5225 
Q 1950 5100 2275 4925 
z
M 2975 1200 
Q 2975 1300 2950 1625 
L 3475 1625 
Q 3450 1275 3450 1200 
L 5050 1200 
Q 5500 1200 5925 1225 
L 5925 825 
L 4150 825 
Q 4500 525 4925 362 
Q 5350 200 6100 25 
Q 5875 -225 5775 -475 
Q 5275 -300 4962 -162 
Q 4650 -25 4387 137 
Q 4125 300 3950 462 
Q 3775 625 3575 825 
L 3450 825 
L 3450 250 
Q 3450 -275 3500 -650 
L 2950 -650 
Q 2975 -300 2975 250 
L 2975 825 
L 2875 825 
Q 2700 575 2475 375 
Q 2250 175 1987 12 
Q 1725 -150 1425 -300 
Q 1125 -450 700 -575 
Q 600 -325 400 -75 
Q 925 50 1475 262 
Q 2025 475 2300 825 
L 500 825 
L 500 1225 
Q 800 1200 1400 1200 
L 2975 1200 
z
M 3150 2800 
L 3150 3200 
L 1650 3200 
L 1650 2800 
L 3150 2800 
z
M 3150 3575 
L 3150 3975 
L 1650 3975 
L 1650 3575 
L 3150 3575 
z
M 3150 2075 
L 3150 2425 
L 1650 2425 
L 1650 2075 
L 3150 2075 
z
M 3450 5250 
Q 3575 5150 3712 5000 
Q 3850 4850 4000 4650 
Q 3850 4525 3575 4375 
Q 3425 4575 3325 4700 
Q 3225 4825 3075 4950 
Q 3275 5075 3450 5250 
z
" transform="scale(0.015625)"/>
      <path id="SimHei-6784" d="M 2250 1625 
Q 2050 2100 1825 2475 
L 1825 575 
Q 1825 50 1850 -500 
L 1325 -500 
Q 1350 75 1350 575 
L 1350 2375 
Q 1075 1750 525 1000 
Q 375 1200 175 1400 
Q 625 1900 912 2512 
Q 1200 3125 1250 3500 
Q 850 3500 475 3475 
L 475 3925 
Q 850 3900 1350 3900 
L 1350 4475 
Q 1350 4850 1325 5150 
L 1850 5150 
Q 1825 4900 1825 4475 
L 1825 3900 
Q 2150 3900 2525 3925 
L 2525 3475 
Q 2150 3500 1825 3500 
L 1825 2525 
Q 2025 2625 2225 2750 
Q 2475 2300 2700 1875 
Q 2475 1775 2250 1625 
z
M 4000 5050 
Q 3875 4875 3762 4625 
Q 3650 4375 3550 4125 
L 6025 4125 
Q 6000 3750 5975 3200 
Q 5975 1675 5875 350 
Q 5775 -200 5462 -337 
Q 5150 -475 4500 -525 
Q 4450 -250 4300 50 
Q 4825 25 5100 75 
Q 5375 125 5425 725 
Q 5525 2125 5500 3700 
L 3375 3700 
Q 3150 3200 2875 2750 
Q 2675 2900 2450 2975 
Q 2825 3525 3075 4150 
Q 3325 4775 3425 5250 
Q 3725 5100 4000 5050 
z
M 4450 1050 
Q 4175 1025 3662 950 
Q 3150 875 2800 725 
Q 2700 1025 2575 1300 
Q 2725 1350 2925 1675 
Q 3125 2000 3250 2337 
Q 3375 2675 3500 3150 
Q 3800 3025 4075 2875 
Q 3925 2725 3637 2162 
Q 3350 1600 3175 1350 
Q 3725 1375 4375 1425 
Q 4275 1775 4125 2175 
L 4625 2325 
Q 4775 1900 4900 1525 
Q 5025 1150 5075 800 
Q 4800 750 4550 650 
Q 4500 875 4450 1050 
z
" transform="scale(0.015625)"/>
      <path id="SimHei-6210" d="M 3500 4000 
Q 3475 4725 3450 5225 
Q 3750 5200 4025 5175 
Q 3975 4850 4000 4000 
L 4725 4000 
Q 5250 4000 5875 4025 
L 5875 3550 
Q 5225 3575 4725 3575 
L 4025 3575 
Q 4050 2625 4350 1500 
Q 4825 2225 5100 3175 
Q 5350 2975 5675 2825 
Q 5475 2600 5225 2075 
Q 4975 1550 4575 975 
Q 4800 525 5062 262 
Q 5325 0 5425 37 
Q 5525 75 5625 900 
Q 5875 700 6150 600 
Q 5975 -425 5762 -537 
Q 5550 -650 5250 -537 
Q 4950 -425 4687 -112 
Q 4425 200 4250 575 
Q 3650 -75 2725 -650 
Q 2600 -425 2350 -250 
Q 2850 -25 3312 350 
Q 3775 725 4000 1050 
Q 3825 1525 3700 2212 
Q 3575 2900 3550 3575 
L 1400 3575 
L 1400 2700 
L 3025 2700 
Q 2975 2250 2950 1775 
L 2875 775 
Q 2850 300 2612 200 
Q 2375 100 1800 50 
Q 1775 275 1600 600 
Q 2225 575 2325 675 
Q 2425 775 2450 1250 
L 2500 2250 
L 1400 2250 
Q 1400 1275 1250 625 
Q 1100 -25 700 -575 
Q 425 -375 200 -300 
Q 525 100 650 462 
Q 775 825 837 1250 
Q 900 1675 912 2450 
Q 925 3225 900 4000 
L 3500 4000 
z
M 4750 5225 
Q 5250 4825 5625 4425 
Q 5400 4250 5225 4075 
Q 4925 4475 4425 4900 
Q 4600 5050 4750 5225 
z
" transform="scale(0.015625)"/>
     </defs>
     <use xlink:href="#SimHei-56"/>
     <use xlink:href="#SimHei-65" transform="translate(50 0)"/>
     <use xlink:href="#SimHei-72" transform="translate(100 0)"/>
     <use xlink:href="#SimHei-69" transform="translate(150 0)"/>
     <use xlink:href="#SimHei-6c" transform="translate(200 0)"/>
     <use xlink:href="#SimHei-6f" transform="translate(250 0)"/>
     <use xlink:href="#SimHei-67" transform="translate(300 0)"/>
     <use xlink:href="#SimHei-45" transform="translate(350 0)"/>
     <use xlink:href="#SimHei-76" transform="translate(400 0)"/>
     <use xlink:href="#SimHei-61" transform="translate(450 0)"/>
     <use xlink:href="#SimHei-6c" transform="translate(500 0)"/>
     <use xlink:href="#SimHei-2d" transform="translate(550 0)"/>
     <use xlink:href="#SimHei-48" transform="translate(600 0)"/>
     <use xlink:href="#SimHei-75" transform="translate(650 0)"/>
     <use xlink:href="#SimHei-6d" transform="translate(700 0)"/>
     <use xlink:href="#SimHei-61" transform="translate(750 0)"/>
     <use xlink:href="#SimHei-6e" transform="translate(800 0)"/>
     <use xlink:href="#SimHei-20" transform="translate(850 0)"/>
     <use xlink:href="#SimHei-32" transform="translate(900 0)"/>
     <use xlink:href="#SimHei-30" transform="translate(950 0)"/>
     <use xlink:href="#SimHei-20" transform="translate(1000 0)"/>
     <use xlink:href="#SimHei-9898" transform="translate(1050 0)"/>
     <use xlink:href="#SimHei-5b50" transform="translate(1150 0)"/>
     <use xlink:href="#SimHei-96c6" transform="translate(1250 0)"/>
     <use xlink:href="#SimHei-6784" transform="translate(1350 0)"/>
     <use xlink:href="#SimHei-6210" transform="translate(1450 0)"/>
    </g>
   </g>
  </g>
 </g>
</svg>
